<?xml version="1.0" standalone="no"?>
<!DOCTYPE svg PUBLIC "-//W3C//DTD SVG 20010904//EN"
 "http://www.w3.org/TR/2001/REC-SVG-20010904/DTD/svg10.dtd">
<svg version="1.0" xmlns="http://www.w3.org/2000/svg"
 width="614.000000pt" height="614.000000pt" viewBox="0 0 614.000000 614.000000"
 preserveAspectRatio="xMidYMid meet">
<metadata>
Created by potrace 1.11, written by Peter Selinger 2001-2013
</metadata>
<g transform="translate(0.000000,614.000000) scale(0.100000,-0.100000)"
fill="#000000" stroke="none">
<path d="M0 5035 l0 -1105 525 0 525 0 0 -22 c1 -46 -132 -2563 -136 -2567 -1
-1 -200 6 -441 18 -241 12 -446 21 -455 21 -17 0 -18 -32 -18 -540 l0 -540 28
0 c16 0 357 29 758 65 401 36 737 65 747 65 15 0 17 -11 16 -102 -1 -57 -4
-150 -8 -208 l-6 -105 -30 -6 c-29 -6 -29 -7 8 -8 l37 -1 0 93 c0 50 3 103 7
116 l6 24 176 -7 c509 -19 4340 -156 4368 -156 l33 0 0 220 0 220 -27 0 -28 1
28 15 27 15 0 148 c0 140 -1 149 -20 154 -17 4 -20 14 -20 56 0 46 2 51 23 52
21 1 21 1 -3 8 l-25 8 25 5 c22 5 22 5 4 7 -16 1 -23 9 -26 31 -4 25 -1 30 21
33 14 2 -95 6 -244 8 l-270 4 270 5 270 5 -197 3 c-191 2 -198 3 -198 22 0 19
7 20 198 22 l197 2 -195 6 c-107 3 -197 8 -200 10 -3 2 85 7 195 10 l200 6
-272 2 -273 2 0 50 0 50 272 0 c149 0 269 3 266 6 -6 6 -2862 -20 -3560 -31
l-358 -7 0 99 c0 54 4 103 8 110 6 9 473 22 1956 53 1072 22 1952 42 1955 46
3 3 -104 3 -239 -1 -135 -4 -243 -5 -240 -3 3 3 109 27 235 53 127 27 234 52
239 56 5 4 0 6 -10 3 -103 -24 -389 -82 -393 -79 -2 3 -23 404 -47 892 -52
1078 -62 1283 -70 1396 l-6 87 266 0 266 0 0 1105 0 1105 -1582 -2 -1583 -3
-6 -1060 c-4 -583 -8 -1379 -9 -1770 -2 -390 -5 -929 -7 -1197 -5 -455 -6
-487 -23 -485 -15 1 -17 14 -17 117 -1 75 3 118 11 122 7 5 7 8 0 8 -6 0 -11
22 -12 49 -1 43 2 49 16 45 12 -4 13 -3 4 3 -20 15 -28 83 -11 94 8 5 10 9 4
9 -5 0 -10 22 -11 49 -1 41 1 48 15 43 13 -5 13 -3 -2 12 -22 22 -21 123 1
118 10 -2 9 3 -1 20 -18 29 -21 130 -4 140 7 5 8 8 1 8 -6 0 -9 31 -7 88 2 48
3 100 3 115 0 20 3 26 12 21 11 -6 11 -5 0 8 -16 20 -15 191 2 181 7 -4 7 -1
-1 8 -9 11 -12 73 -11 226 1 188 3 210 17 205 13 -5 13 -3 -1 12 -21 20 -24
76 -5 76 8 0 8 3 1 8 -13 9 -17 209 -4 217 7 4 7 13 0 25 -15 28 -12 40 8 33
16 -7 16 -6 0 11 -21 20 -24 76 -5 76 8 0 8 3 1 8 -6 4 -9 34 -8 72 2 36 4
295 5 577 1 318 6 510 12 506 5 -3 4 4 -2 15 -7 13 -9 90 -5 228 9 343 10 964
2 964 -5 0 -8 -43 -8 -95 0 -69 -3 -95 -12 -95 -10 0 -10 -2 -1 -8 9 -6 11
-100 9 -387 -4 -475 -3 -447 -18 -456 -8 -6 -9 -9 -2 -9 17 0 18 -151 2 -162
-9 -5 -9 -8 -1 -8 17 0 18 -560 1 -560 -10 0 -10 -2 0 -9 21 -13 13 -478 -8
-491 -10 -6 -11 -10 -3 -10 18 0 18 -586 0 -593 -9 -4 -9 -6 1 -6 17 -1 17
-177 0 -184 -10 -4 -10 -6 0 -6 9 -1 12 -26 12 -91 0 -65 -3 -90 -12 -90 -10
0 -10 -2 0 -9 17 -10 6 -562 -12 -573 -8 -6 -8 -8 1 -8 9 0 12 -58 12 -243 1
-159 -3 -237 -9 -227 -6 9 -10 10 -10 3 0 -6 5 -15 10 -18 6 -3 10 -48 10 -99
l0 -94 -31 -4 -30 -5 4 76 c2 42 6 294 9 561 7 748 21 2055 30 2855 8 670 9
1037 5 1042 -4 3 -14 -747 -22 -1662 -3 -313 -8 -680 -11 -815 -5 -237 -8
-562 -12 -1403 -2 -306 -5 -397 -15 -397 -8 0 -8 -3 2 -9 11 -7 12 -26 6 -97
-4 -49 -7 -103 -6 -119 1 -25 -4 -32 -29 -42 l-30 -11 5 121 c2 67 7 343 10
612 6 554 12 1036 20 1520 3 182 10 708 15 1170 5 462 11 908 13 990 2 83 2
140 0 128 -3 -13 -9 -23 -15 -23 -7 0 -6 -5 2 -15 6 -8 9 -19 5 -24 -3 -6 -6
-150 -6 -321 0 -217 -3 -310 -11 -310 -7 0 -6 -5 2 -15 9 -11 11 -33 5 -78 -3
-34 -6 -144 -6 -244 1 -140 -2 -183 -11 -183 -10 0 -10 -2 0 -9 10 -6 12 -44
8 -172 -2 -90 -5 -245 -5 -343 -1 -133 -4 -182 -13 -188 -10 -6 -10 -8 0 -8 9
0 12 -24 12 -85 0 -56 -4 -85 -11 -85 -8 0 -8 -5 1 -15 9 -11 11 -37 6 -93 -3
-42 -6 -117 -5 -166 0 -63 -4 -92 -13 -97 -9 -6 -10 -9 -1 -9 9 0 12 -46 12
-180 0 -113 -3 -180 -10 -180 -6 0 -5 -8 2 -22 8 -14 9 -45 5 -92 -4 -39 -7
-203 -7 -363 0 -269 -1 -293 -17 -293 -16 -1 -16 -1 1 -11 17 -10 25 -68 11
-82 -4 -4 -6 -117 -5 -252 1 -163 -2 -245 -9 -245 -7 0 -7 -6 0 -19 11 -22 14
-181 3 -181 -5 0 -6 -30 -5 -66 4 -69 -3 -84 -40 -84 -16 0 -18 10 -18 76 0
41 3 73 8 71 4 -3 5 15 3 40 -2 31 1 48 10 54 10 6 10 9 2 9 -9 0 -12 28 -12
95 0 67 3 95 12 95 8 0 8 3 -1 9 -20 12 -11 369 9 382 9 6 10 9 2 9 -17 0 -17
190 0 190 8 0 8 3 -1 9 -20 12 -11 359 9 372 9 6 10 9 2 9 -17 0 -17 180 0
180 8 0 8 3 -1 9 -11 6 -12 45 -8 187 3 98 6 221 6 272 0 66 4 92 13 92 9 0 9
2 -1 8 -9 6 -11 50 -8 183 2 96 5 256 5 357 2 134 5 182 14 182 8 0 8 3 -1 9
-11 6 -12 41 -7 172 4 90 7 244 6 342 0 131 3 177 12 177 8 0 7 3 -2 9 -10 7
-12 24 -7 75 4 36 7 146 7 243 0 126 4 180 12 185 9 6 9 8 0 8 -9 0 -13 23
-13 80 0 44 3 80 8 80 7 0 7 288 -1 296 -6 6 -16 -416 -23 -981 -6 -429 -8
-492 -22 -502 -11 -10 -12 -13 -3 -13 11 0 12 -90 7 -502 -4 -277 -9 -568 -11
-648 -3 -80 -7 -327 -10 -550 -3 -223 -7 -502 -10 -620 -3 -118 -7 -336 -9
-483 -2 -148 -6 -270 -8 -272 -1 -1 -14 -6 -26 -10 l-24 -7 6 344 c3 188 7
433 10 543 2 110 7 360 10 555 3 195 8 432 11 525 3 94 7 314 10 490 3 176 7
408 10 515 3 107 10 449 15 760 5 311 12 633 14 715 3 107 1 128 -4 75 -4 -41
-10 -282 -14 -535 -7 -477 -11 -555 -30 -567 -8 -6 -7 -8 2 -8 9 0 12 -41 12
-170 0 -129 -3 -170 -12 -170 -10 0 -10 -2 0 -9 17 -10 6 -171 -12 -171 -6 0
-5 -4 3 -9 20 -13 10 -519 -10 -532 -10 -6 -11 -9 -1 -9 9 0 12 -43 12 -180 0
-164 -2 -180 -17 -181 -11 0 -13 -3 -5 -6 9 -3 12 -50 12 -183 0 -162 -2 -179
-17 -183 -16 -4 -16 -5 1 -6 18 -1 19 -7 13 -88 -4 -54 -11 -89 -19 -95 -10
-6 -10 -8 0 -8 9 0 12 -42 12 -178 0 -265 -9 -390 -29 -395 -13 -4 -12 -5 2
-6 18 -1 18 -19 12 -408 -4 -225 -8 -414 -10 -420 -3 -7 -14 -13 -25 -13 -19
0 -20 6 -20 86 0 54 4 83 10 79 6 -3 10 -1 10 4 0 6 -5 11 -11 11 -17 0 -8
168 10 179 9 6 10 11 2 15 -16 10 -15 183 2 190 10 5 10 7 0 12 -9 4 -13 33
-13 95 0 50 4 88 8 85 4 -2 6 38 4 91 -4 73 -1 98 9 105 11 7 11 11 2 15 -9 3
-13 32 -13 94 0 58 4 88 10 84 6 -3 10 -2 10 4 0 5 -4 11 -9 13 -5 2 -7 41 -4
90 3 48 10 85 14 82 5 -3 9 0 9 5 0 6 -4 11 -10 11 -6 0 -10 37 -10 91 0 57 4
88 10 84 6 -3 10 1 10 10 0 10 -5 13 -12 9 -8 -5 -10 15 -5 76 3 47 10 86 17
90 9 5 9 9 1 14 -16 10 -15 173 1 180 10 5 11 7 1 12 -9 4 -13 32 -13 90 0 47
4 83 8 80 4 -2 6 38 4 90 -3 73 -1 94 9 94 10 0 10 3 1 12 -15 15 -17 182 -2
173 6 -3 10 -1 10 4 0 6 -5 11 -11 11 -8 0 -9 18 -4 63 4 34 7 113 6 175 -1
76 2 111 9 107 5 -3 10 -1 10 4 0 6 -4 11 -10 11 -11 0 -14 143 -3 154 4 4 6
45 4 93 -2 63 1 88 11 94 10 7 10 9 1 9 -10 0 -13 24 -13 86 0 54 4 83 10 79
6 -3 10 -1 10 4 0 6 -5 11 -11 11 -8 0 -9 20 -4 68 4 37 7 109 6 161 -2 68 1
96 11 102 10 7 10 9 1 9 -9 0 -13 23 -13 80 0 44 3 80 8 80 4 0 6 75 4 167 -2
126 1 169 10 175 10 6 10 8 -1 8 -11 0 -13 14 -7 73 8 83 9 307 1 315 -3 3 -5
-30 -5 -74 0 -43 -2 -133 -5 -199 -3 -66 -7 -237 -10 -380 -3 -143 -7 -336 -9
-430 -2 -93 -7 -289 -10 -435 -3 -146 -8 -346 -10 -445 -2 -99 -7 -301 -10
-450 -3 -148 -8 -355 -11 -460 -9 -309 -14 -568 -15 -765 -1 -101 -4 -189 -7
-193 -3 -5 -5 -95 -5 -200 1 -123 -3 -196 -10 -204 -7 -9 -7 -13 1 -13 7 0 10
-8 7 -18 -4 -10 -7 -91 -7 -180 -1 -145 -3 -163 -18 -160 -12 3 -15 14 -14 48
2 25 3 133 4 240 1 107 4 199 7 204 3 5 5 96 5 203 0 106 2 193 6 193 3 0 6
93 7 208 0 114 3 324 7 467 12 470 16 627 21 890 4 143 8 334 11 425 4 160 10
394 20 840 3 118 7 305 10 415 4 110 7 262 9 338 l2 137 -1323 0 -1323 0 0
-1105z m3007 873 c-2 -13 -4 -3 -4 22 0 25 2 35 4 23 2 -13 2 -33 0 -45z m263
-61 l0 -52 -84 -18 c-46 -9 -89 -17 -95 -17 -7 0 -11 20 -11 49 l0 49 78 17
c42 9 82 18 87 20 22 8 25 3 25 -48z m62 -39 c-42 -17 -52 -10 -52 37 l0 45
34 -38 c30 -32 32 -38 18 -44z m-262 -3 c0 -42 -3 -55 -15 -55 -11 0 -15 12
-15 49 0 43 4 53 28 60 1 1 2 -24 2 -54z m340 -44 c0 -45 -2 -49 -27 -56 -51
-13 -316 -65 -330 -65 -9 0 -13 15 -13 48 l0 49 163 35 c219 48 207 49 207
-11z m0 -101 c0 -22 -1 -40 -3 -40 -2 0 -82 -16 -177 -35 -95 -19 -177 -35
-182 -35 -4 0 -8 17 -8 38 l0 37 173 36 c94 20 178 37 185 38 8 1 12 -13 12
-39z m-820 20 c0 -5 -6 -10 -12 -10 -9 0 -8 -4 2 -10 11 -8 9 -9 -10 -5 -14 3
-70 -4 -124 -15 -87 -19 -120 -21 -104 -5 4 5 212 53 236 54 6 1 12 -3 12 -9z
m-12 -40 c13 0 18 -100 5 -100 -5 0 -334 -67 -732 -148 l-723 -149 6 45 c3 25
8 47 10 49 2 2 233 52 514 111 312 65 506 110 499 115 -7 6 -4 6 8 2 28 -9
391 67 368 77 -13 6 -11 7 7 3 14 -2 31 -5 38 -5z m-81 -6 c-3 -3 -12 -4 -19
-1 -8 3 -5 6 6 6 11 1 17 -2 13 -5z m-44 -11 c-7 -2 -19 -2 -25 0 -7 3 -2 5
12 5 14 0 19 -2 13 -5z m-46 -9 c-3 -3 -12 -4 -19 -1 -8 3 -5 6 6 6 11 1 17
-2 13 -5z m-50 -10 c-3 -3 -12 -4 -19 -1 -8 3 -5 6 6 6 11 1 17 -2 13 -5z
m1051 -171 l-3 -177 -90 -17 c-49 -9 -109 -19 -133 -23 -24 -3 -46 -7 -50 -10
-4 -2 -27 -7 -52 -10 l-45 -6 3 174 3 173 172 36 c95 19 178 35 185 36 10 1
12 -38 10 -176z m-1101 161 c-3 -3 -12 -4 -19 -1 -8 3 -5 6 6 6 11 1 17 -2 13
-5z m-44 -11 c-7 -2 -19 -2 -25 0 -7 3 -2 5 12 5 14 0 19 -2 13 -5z m-46 -9
c-3 -3 -12 -4 -19 -1 -8 3 -5 6 6 6 11 1 17 -2 13 -5z m373 -82 l0 -37 -731
-146 -730 -146 3 36 3 36 710 146 c391 81 718 147 728 148 13 1 17 -7 17 -37z
m0 -101 c0 -71 -14 -101 -46 -101 l-27 0 6 65 c7 78 11 85 43 85 22 0 24 -4
24 -49z m-84 7 c-3 -13 -6 -44 -6 -69 l0 -46 -61 -12 c-34 -7 -63 -10 -66 -7
-3 3 -2 34 1 70 l7 64 57 10 c31 5 61 10 66 11 4 0 6 -9 2 -21z m1308 -120 c9
-221 30 -3447 23 -3455 -4 -3 -9 -4 -12 -1 -3 2 -9 508 -15 1124 -5 615 -12
1424 -15 1797 -5 444 -3 677 3 677 6 0 12 -59 16 -142z m-1454 78 c0 -105 4
-101 -144 -129 -72 -14 -132 -24 -134 -22 -2 2 0 34 3 72 l7 69 127 26 c69 14
129 26 134 27 4 0 7 -19 7 -43z m-291 -63 c-3 -87 -9 -96 -72 -109 l-57 -11 0
67 0 67 53 10 c80 16 77 17 76 -24z m-147 -53 c-3 -67 -5 -70 -30 -76 -68 -14
-63 -19 -60 59 3 71 3 72 33 78 62 13 60 15 57 -61z m658 -18 l0 -68 -547
-102 c-302 -56 -550 -102 -553 -102 -3 0 -4 28 -2 63 l3 62 547 107 c301 58
548 107 550 107 1 1 2 -30 2 -67z m-760 31 c0 -51 -12 -102 -25 -107 -7 -2
-33 -8 -59 -11 l-46 -7 0 64 0 65 53 10 c78 15 77 15 77 -14z m-140 -22 c0
-10 -3 -39 -6 -64 -7 -46 -7 -46 -56 -56 -27 -6 -53 -11 -58 -11 -6 0 -10 29
-10 64 l0 65 43 9 c68 16 87 14 87 -7z m1730 -24 l0 -43 -182 -32 c-101 -18
-186 -32 -190 -32 -5 0 -8 17 -8 38 l0 39 188 35 c103 20 188 36 190 37 1 1 2
-18 2 -42z m-1870 -1 c0 -13 -3 -44 -6 -69 -6 -40 -10 -46 -33 -49 -25 -3 -26
-6 -33 -92 -5 -50 -11 -93 -15 -97 -5 -3 -78 -19 -163 -34 -85 -15 -161 -30
-167 -32 -10 -4 -12 25 -6 133 3 77 9 150 13 164 6 23 17 27 186 61 222 46
224 46 224 15z m1870 -235 l0 -179 -57 -7 c-90 -12 -249 -38 -300 -50 l-23 -5
0 178 0 179 168 31 c92 16 177 31 190 31 l22 1 0 -179z m-830 131 l0 -38 -537
-98 c-296 -53 -546 -100 -555 -102 -15 -5 -18 1 -18 33 l0 39 533 101 c292 56
542 101 555 102 19 1 22 -4 22 -37z m877 -134 c-2 -29 -3 -8 -3 47 0 55 1 79
3 53 2 -26 2 -71 0 -100z m673 -128 c0 -153 -4 -240 -10 -240 -6 0 -10 61 -10
163 0 90 -3 198 -6 240 -6 67 -5 77 10 77 14 0 16 -24 16 -240z m-1553 133
c-2 -16 -4 -3 -4 27 0 30 2 43 4 28 2 -16 2 -40 0 -55z m-27 -13 c0 -89 4 -87
-68 -35 -34 24 -42 36 -42 62 0 26 5 34 23 37 55 12 63 14 75 15 9 1 12 -21
12 -79z m-130 25 c0 -28 -3 -33 -17 -28 -9 4 -14 2 -11 -3 3 -5 -16 -10 -43
-11 -47 -2 -49 -1 -49 27 0 26 3 28 58 38 31 5 58 10 60 11 1 0 2 -15 2 -34z
m-140 -25 c0 -27 -3 -30 -30 -30 -17 0 -43 7 -58 16 l-27 16 25 -21 25 -21
-23 0 c-14 0 -21 -4 -17 -11 5 -7 25 -8 56 -4 l49 7 0 -51 c0 -43 -3 -51 -19
-51 -10 0 -33 -3 -50 -6 l-31 -6 0 50 c0 28 -4 54 -10 57 -14 9 -13 52 2 61
13 8 65 21 91 23 13 1 17 -7 17 -29z m1157 -12 c-3 -7 -5 -2 -5 12 0 14 2 19
5 13 2 -7 2 -19 0 -25z m-1317 -18 c0 -23 -5 -30 -19 -30 -10 0 -33 -3 -51 -6
-30 -7 -31 -6 -28 22 2 23 9 30 33 35 59 13 65 11 65 -21z m-115 -17 c-4 -16
-7 -28 -8 -29 -1 0 -22 -5 -47 -10 -62 -13 -64 -36 -6 -71 25 -15 46 -31 46
-34 0 -6 -60 -19 -93 -19 -16 0 -17 8 -11 83 4 45 8 84 10 86 4 5 70 18 98 20
15 1 17 -4 11 -26z m415 -29 c0 -38 -3 -44 -25 -50 -35 -9 -95 30 -95 62 0 19
5 24 26 24 14 0 23 3 20 8 -2 4 13 6 35 4 39 -4 39 -4 39 -48z m37 50 c-4 -4
15 -22 41 -40 26 -19 42 -34 37 -34 -6 -1 -29 -5 -52 -9 l-43 -8 0 42 c0 38 6
55 18 55 3 0 2 -3 -1 -6z m-587 -94 l0 -80 -41 26 c-22 14 -46 23 -53 21 -9
-4 -13 10 -15 43 l-2 47 53 10 c29 6 54 11 56 12 1 0 2 -35 2 -79z m2490 18
l-1 -53 -39 45 c-41 48 -38 58 18 59 20 1 22 -3 22 -51z m-2902 -43 c-2 -2
-68 -15 -148 -29 -80 -15 -157 -29 -172 -32 -26 -5 -28 -4 -28 30 0 42 -15 36
195 74 l150 28 3 -34 c2 -19 2 -35 0 -37z m282 41 c0 -37 -5 -41 -74 -51 l-46
-7 0 36 c0 29 4 37 23 40 12 3 31 7 42 9 49 11 55 8 55 -27z m427 -43 c-2 -16
-4 -3 -4 27 0 30 2 43 4 28 2 -16 2 -40 0 -55z m-54 20 c-3 -27 -6 -48 -7 -49
-1 -1 -20 -4 -43 -8 l-43 -6 0 49 c0 53 4 56 72 60 27 1 28 0 21 -46z m24 -30
c-2 -16 -4 -3 -4 27 0 30 2 43 4 28 2 -16 2 -40 0 -55z m-537 27 l0 -40 -40
25 c-22 14 -43 25 -47 25 -5 0 10 -12 32 -25 l40 -25 -33 -6 c-31 -6 -55 -24
-32 -24 19 0 7 -74 -13 -78 -9 -2 -17 2 -17 8 0 7 6 10 14 7 9 -4 13 0 12 11
-2 9 -8 18 -14 20 -7 2 -12 25 -12 57 0 48 2 53 28 63 15 6 38 13 52 15 14 2
26 5 28 6 1 0 2 -17 2 -39z m395 3 c-9 -37 -9 -37 -37 -19 -14 9 -28 13 -33 9
-4 -5 -5 -2 -1 5 4 7 2 12 -6 13 -19 1 33 17 61 18 20 1 22 -2 16 -26z m345
-3 c0 -6 -9 -10 -20 -10 -13 0 -20 7 -20 20 0 18 3 19 20 10 11 -6 20 -15 20
-20z m228 -125 c-2 -2 -16 -5 -33 -8 -769 -129 -1057 -177 -1065 -177 -15 0
-13 115 3 128 7 6 255 53 552 104 l540 94 3 -69 c2 -38 2 -71 0 -72z m-828 56
c0 -32 -4 -40 -22 -45 -46 -12 -68 -7 -68 15 0 21 1 21 26 4 14 -9 28 -15 30
-12 2 2 -7 10 -21 17 -35 19 -28 44 13 48 20 2 30 7 26 14 -4 7 -2 8 4 4 7 -4
12 -24 12 -45z m-286 -83 c-8 -193 -10 -206 -42 -212 -32 -6 -130 -22 -186
-31 -39 -5 -58 -9 -109 -20 l-28 -6 7 158 c3 87 10 161 13 166 7 7 293 64 333
66 15 1 17 -11 12 -121z m2316 45 l0 -76 -25 23 c-20 19 -25 33 -25 71 0 41 3
48 23 52 12 2 23 5 25 6 1 0 2 -34 2 -76z m620 -49 c0 -81 -4 -123 -10 -119
-6 4 -10 57 -10 126 0 73 4 119 10 119 6 0 10 -49 10 -126z m-2576 101 c10 -8
23 -12 29 -8 6 3 7 1 3 -5 -4 -7 -1 -12 6 -13 15 -1 -22 -13 -67 -22 -30 -6
-31 -5 -27 29 5 37 23 44 56 19z m-168 -11 c-3 -9 -6 -27 -6 -40 0 -13 -4 -24
-10 -24 -5 0 -10 18 -10 40 0 30 4 40 16 40 11 0 14 -5 10 -16z m1764 -24 c0
-36 -2 -39 -32 -45 -142 -23 -337 -55 -342 -55 -6 0 -9 79 -3 81 30 7 330 57
350 58 25 1 27 -2 27 -39z m-1810 -10 c0 -38 -2 -40 -30 -40 -27 0 -30 3 -30
34 0 34 9 44 43 45 13 1 17 -7 17 -39z m-133 -32 c-3 -7 -5 -2 -5 12 0 14 2
19 5 13 2 -7 2 -19 0 -25z m2723 -28 c0 -57 -1 -60 -25 -60 -24 0 -25 3 -25
54 0 34 5 56 13 59 32 14 37 7 37 -53z m-325 -68 c-7 -38 -25 -34 -24 6 0 24
1 25 9 7 6 -14 9 -2 11 45 2 55 3 58 6 20 3 -24 2 -59 -2 -78z m-1295 49 c0
-35 -3 -40 -27 -45 -40 -8 -1074 -176 -1084 -176 -5 0 -9 17 -9 38 l0 37 543
92 c298 50 550 91 560 92 13 1 17 -7 17 -38z m840 -145 l0 -184 -37 -6 c-21
-4 -56 -9 -78 -11 -22 -2 -83 -11 -135 -20 -52 -8 -103 -15 -112 -15 -17 0
-18 15 -18 180 0 99 3 180 8 180 4 0 84 14 177 29 94 16 176 30 183 30 9 1 12
-42 12 -183z m47 2 c-2 -29 -3 -8 -3 47 0 55 1 79 3 53 2 -26 2 -71 0 -100z
m733 57 c0 -30 -3 -35 -24 -35 -13 0 -31 -3 -40 -6 -13 -5 -16 1 -16 29 0 37
8 43 58 46 19 1 22 -4 22 -34z m-1654 -122 c-2 -2 -27 11 -55 29 -43 28 -51
38 -51 65 0 30 2 32 53 40 l52 8 3 -69 c2 -37 1 -70 -2 -73z m-126 87 c0 -26
-3 -30 -29 -30 -16 0 -43 -3 -60 -6 -29 -6 -31 -5 -31 24 0 27 4 31 33 35 83
10 87 9 87 -23z m1427 -142 c-2 -35 -3 -9 -3 57 0 66 1 94 3 63 2 -32 2 -86 0
-120z m776 80 c9 -116 9 -164 -2 -152 -10 11 -21 234 -11 234 4 0 10 -37 13
-82z m-2345 39 c-2 -30 -4 -33 -27 -29 -14 3 -39 14 -56 26 l-30 21 35 6 c76
14 81 12 78 -24z m1169 -19 c-2 -13 -4 -5 -4 17 -1 22 1 32 4 23 2 -10 2 -28
0 -40z m-1310 -110 c-2 -29 -3 -6 -3 52 0 58 1 81 3 53 2 -29 2 -77 0 -105z
m-20 86 c-2 -2 -25 -7 -50 -10 -46 -7 -47 -6 -47 19 0 22 5 27 38 32 20 4 42
8 47 9 10 3 21 -42 12 -50z m2083 8 c0 -27 3 -97 7 -155 l6 -107 -40 0 -40 0
-6 83 c-11 132 -9 215 6 220 6 3 24 6 40 6 26 1 27 -1 27 -47z m-2002 18 c28
-27 28 -27 -8 -22 -21 3 -30 10 -30 23 0 24 11 24 38 -1z m-198 -19 c0 -28 -3
-30 -45 -36 -24 -4 -50 -14 -56 -22 -11 -12 -8 -13 14 -9 83 18 77 19 77 -14
l0 -30 -39 20 c-22 11 -42 16 -45 12 -3 -5 15 -18 40 -30 25 -13 44 -28 41
-35 -5 -16 -84 -26 -97 -13 -5 5 -10 45 -10 87 l0 77 53 10 c28 5 55 10 60 11
4 0 7 -12 7 -28z m420 -42 c0 -59 -8 -61 -73 -19 -52 33 -62 60 -21 60 14 0
23 3 20 8 -2 4 13 6 35 4 l39 -4 0 -49z m35 51 c-6 -9 8 -14 28 -11 5 1 6 -2
3 -7 -2 -4 11 -16 30 -27 19 -10 34 -21 34 -25 0 -4 -17 -10 -37 -14 -71 -11
-73 -10 -73 37 0 24 3 47 7 50 10 10 15 8 8 -3z m-590 -75 c-4 -36 -10 -65
-14 -63 -4 2 -28 12 -54 23 -44 19 -47 23 -47 56 l0 37 58 9 c31 5 59 8 61 6
2 -1 0 -32 -4 -68z m-415 17 l0 -38 -172 -27 c-95 -15 -176 -27 -180 -27 -7 0
1 60 8 69 4 4 299 57 332 60 8 1 12 -13 12 -37z m830 -12 c0 -33 -4 -50 -12
-50 -7 0 -30 -3 -50 -6 l-38 -7 0 51 c0 54 3 57 73 61 26 1 27 -1 27 -49z
m-548 5 c-4 -33 -6 -35 -53 -41 -27 -4 -46 -10 -43 -15 3 -5 -2 -6 -11 -3 -12
5 -15 17 -13 43 3 33 6 37 38 42 80 14 86 12 82 -26z m378 -26 c0 -52 -1 -53
-58 -63 l-33 -6 2 58 2 58 35 -4 c24 -3 33 -1 28 7 -5 7 -1 9 8 5 12 -4 16
-20 16 -55z m57 -21 c-2 -18 -4 -6 -4 27 0 33 2 48 4 33 2 -15 2 -42 0 -60z
m-567 45 c0 -39 -15 -46 -51 -24 -19 12 -38 21 -44 21 -5 -1 7 -10 28 -21 44
-23 48 -39 9 -39 -27 0 -28 -1 -26 -55 1 -45 -2 -55 -15 -55 -14 0 -18 12 -19
71 -3 102 3 109 101 117 10 1 17 -5 17 -15z m770 -35 c0 -5 -16 -8 -35 -8 -32
0 -35 2 -35 30 l0 30 35 -22 c19 -13 35 -26 35 -30z m-903 5 c-3 -10 -5 -4 -5
12 0 17 2 24 5 18 2 -7 2 -21 0 -30z m1103 -68 c0 -53 -4 -75 -12 -76 -17 -2
-41 -6 -113 -18 -33 -5 -78 -12 -100 -15 -22 -3 -224 -32 -450 -66 -225 -33
-417 -60 -427 -60 -15 0 -18 9 -18 59 0 38 5 63 14 70 8 7 256 49 553 95 296
46 541 84 546 85 4 0 7 -33 7 -74z m1227 -72 c-2 -27 -3 -5 -3 47 0 52 1 74 3
48 2 -27 2 -69 0 -95z m-2347 90 c0 -21 3 -49 5 -63 5 -22 4 -22 -4 -5 -7 14
-10 -14 -10 -95 -1 -63 -5 -120 -9 -126 -4 -5 -85 -21 -179 -35 l-173 -25 0
47 c0 25 3 100 6 166 l7 120 151 25 c213 36 206 36 206 -9z m280 -8 c0 -38
-15 -53 -52 -53 -23 0 -28 5 -28 24 0 28 2 29 42 8 16 -9 28 -11 24 -6 -3 5
-19 15 -36 22 -37 15 -39 30 -4 30 14 0 23 4 20 9 -4 5 3 7 14 4 15 -4 20 -14
20 -38z m2050 -30 c0 -75 -5 -86 -28 -63 -16 16 -16 125 1 131 25 11 27 5 27
-68z m-1971 45 c21 -10 41 -17 43 -15 3 3 5 -2 5 -10 0 -16 -9 -19 -69 -30
l-38 -6 0 41 c0 46 6 48 59 20z m-221 -42 c-3 -39 -6 -43 -30 -46 -26 -3 -28
-1 -28 37 0 40 1 41 53 50 5 0 7 -18 5 -41z m52 2 c0 -29 -4 -40 -15 -40 -11
0 -15 11 -15 40 0 29 4 40 15 40 11 0 15 -11 15 -40z m3201 -562 c20 -626 23
-805 13 -795 -6 6 -43 1086 -44 1286 0 57 3 102 6 98 3 -3 15 -268 25 -589z
m-994 530 c-2 -13 -4 -5 -4 17 -1 22 1 32 4 23 2 -10 2 -28 0 -40z m-427 -1
l0 -42 -177 -24 c-98 -13 -184 -26 -190 -29 -9 -3 -13 9 -13 40 l0 45 173 25
c94 14 180 26 190 27 14 1 17 -7 17 -42z m1030 -19 c0 -19 -2 -20 -10 -8 -13
19 -13 30 0 30 6 0 10 -10 10 -22z m-80 -8 c0 -18 -3 -19 -21 -9 -17 9 -19 13
-8 20 22 14 29 11 29 -11z m38 8 c7 -7 12 -28 12 -47 0 -31 -2 -33 -14 -21
-17 18 -31 80 -19 80 5 0 14 -5 21 -12z m-1843 -60 c-4 -24 -8 -43 -9 -44 -3
-2 -1092 -155 -1103 -154 -14 0 -17 48 -5 66 5 8 999 162 1110 173 11 1 12 -9
7 -41z m1302 -20 c-2 -13 -4 -5 -4 17 -1 22 1 32 4 23 2 -10 2 -28 0 -40z
m580 -10 c-2 -13 -4 -3 -4 22 0 25 2 35 4 23 2 -13 2 -33 0 -45z m-1027 -133
c0 -141 -3 -185 -12 -186 -7 0 -22 -2 -33 -4 -11 -2 -78 -11 -150 -20 -71 -8
-142 -17 -157 -20 l-28 -4 0 184 c0 102 1 185 3 186 19 6 312 47 340 48 l37 1
0 -185z m790 140 c0 -34 -1 -35 -40 -35 -39 0 -40 1 -40 35 0 34 1 35 40 35
39 0 40 -1 40 -35z m-743 -137 c-2 -29 -3 -6 -3 52 0 58 1 81 3 53 2 -29 2
-77 0 -105z m1546 -35 c12 -256 16 -550 8 -503 -5 25 -12 167 -15 315 -4 149
-9 282 -12 298 -3 15 -1 27 4 27 5 0 12 -62 15 -137z m-2473 62 c0 -36 -3 -65
-6 -65 -3 0 -28 12 -55 28 -43 23 -49 31 -49 59 0 33 8 37 83 42 27 1 27 1 27
-64z m1670 -90 c0 -85 -4 -155 -9 -155 -5 0 -23 -3 -40 -6 l-31 -6 0 161 0
161 40 0 40 0 0 -155z m-1800 105 c0 -28 -3 -30 -37 -30 -21 0 -48 -3 -60 -6
-20 -6 -23 -3 -23 24 0 33 9 37 88 41 29 1 32 -2 32 -29z m-140 -14 c0 -33
-27 -40 -67 -16 -44 26 -57 26 -18 0 28 -19 29 -20 7 -20 -13 0 -20 -4 -17
-10 3 -5 24 -10 46 -10 28 0 38 4 33 12 -4 7 -3 8 4 4 7 -4 12 -31 12 -60 0
-52 -1 -54 -31 -60 -80 -16 -84 -12 -70 62 7 33 5 44 -6 51 -8 4 -13 18 -11
31 3 26 29 37 86 39 27 1 32 -2 32 -23z m1177 -38 c-2 -13 -4 -3 -4 22 0 25 2
35 4 23 2 -13 2 -33 0 -45z m-1320 -25 c-2 -16 -4 -3 -4 27 0 30 2 43 4 28 2
-16 2 -40 0 -55z m-27 38 c0 -27 -3 -29 -47 -34 -27 -3 -49 -4 -50 -4 -1 1 1
14 4 29 4 20 12 28 32 31 59 9 61 8 61 -22z m2590 -36 c0 -39 -4 -65 -10 -65
-7 0 -10 20 -9 48 1 27 -1 53 -4 59 -6 9 0 16 21 22 1 1 2 -28 2 -64z m-80 28
c0 -26 -1 -26 -17 -10 -16 16 -16 19 -3 27 20 13 20 13 20 -17z m43 -37 c6
-37 6 -38 -13 -21 -13 12 -20 31 -20 54 0 30 2 33 14 21 7 -8 16 -32 19 -54z
m-2663 29 c0 -24 -8 -28 -90 -38 -8 -1 -16 -10 -18 -19 -3 -18 71 -64 87 -54
4 3 6 -5 4 -18 -4 -17 -14 -26 -35 -30 -43 -9 -60 -7 -53 3 3 6 -2 14 -11 19
-14 8 -15 20 -9 80 8 78 6 77 93 81 28 1 32 -2 32 -24z m420 -36 c0 -22 -5
-39 -11 -39 -16 0 -109 53 -109 63 0 4 9 7 21 7 11 0 18 3 16 8 -3 4 15 5 39
3 44 -3 44 -3 44 -42z m34 39 c-5 -8 -2 -9 10 -5 9 4 15 3 12 -2 -5 -8 52 -38
65 -34 3 1 6 -5 6 -13 0 -9 -11 -14 -34 -14 -19 0 -32 -4 -29 -9 3 -4 -6 -6
-19 -3 -21 4 -25 10 -25 41 0 21 3 41 7 44 10 11 15 8 7 -5z m-1014 -33 c0
-41 12 -36 -188 -65 -184 -26 -172 -27 -172 15 0 28 5 36 23 40 39 9 271 43
305 44 30 1 32 -1 32 -34z m420 -30 l0 -65 -41 21 c-23 11 -49 19 -58 16 -13
-3 -15 3 -13 39 4 46 10 50 80 53 l32 1 0 -65z m-131 13 l-3 -43 -63 -2 -64
-2 7 32 c3 18 8 34 10 36 1 1 27 7 56 11 29 4 54 8 56 9 2 0 2 -18 1 -41z
m2008 -120 c-2 -29 -3 -6 -3 52 0 58 1 81 3 53 2 -29 2 -77 0 -105z m-2147
113 c0 -17 -5 -33 -10 -36 -6 -4 -8 -10 -6 -13 2 -4 -14 -6 -36 -4 l-39 4 6
-35 c6 -33 5 -35 -14 -30 -22 6 -27 32 -15 91 l6 31 39 -19 c21 -11 44 -20 51
-20 7 0 -7 10 -32 22 l-45 22 40 6 c22 4 43 8 48 9 4 0 7 -12 7 -28z m520 -31
c0 -53 -8 -60 -66 -60 l-34 0 0 50 c0 44 3 50 21 50 11 0 18 4 15 8 -2 4 11 6
30 4 33 -4 34 -5 34 -52z m55 -2 c-5 -29 -10 -47 -13 -40 -5 17 8 106 15 99 3
-3 2 -30 -2 -59z m-708 5 c-3 -10 -5 -2 -5 17 0 19 2 27 5 18 2 -10 2 -26 0
-35z m898 22 l40 -25 -33 0 c-23 0 -31 -4 -26 -12 5 -7 3 -8 -6 -3 -7 4 -16 2
-21 -6 -6 -9 -9 0 -9 29 0 23 3 42 8 42 4 0 25 -12 47 -25z m-365 -9 c0 -13
-7 -27 -16 -30 -10 -4 -13 -2 -8 6 5 8 2 9 -10 5 -11 -5 -15 -3 -10 5 5 8 2 9
-10 5 -11 -5 -15 -3 -10 5 5 8 1 9 -12 4 -12 -5 -16 -4 -9 3 6 5 24 11 40 14
17 2 33 5 38 6 4 0 7 -10 7 -23z m3190 -69 c0 -46 3 -126 6 -178 4 -63 3 -91
-4 -84 -12 13 -23 345 -11 345 5 0 9 -38 9 -83z m-3746 -99 c-3 -90 -7 -168
-9 -174 -3 -10 -114 -27 -313 -50 l-53 -6 5 44 c3 24 8 100 12 169 l6 126 171
25 c95 14 175 26 180 27 4 0 4 -72 1 -161z m2369 44 c-8 -52 -8 -52 -30 -37
-20 14 -23 25 -23 81 0 57 2 64 19 64 16 0 21 -8 24 -47 l3 -48 4 55 c3 43 4
47 7 20 2 -19 0 -59 -4 -88z m1820 41 c4 -38 9 -147 12 -243 l6 -175 -31 35
c-17 19 -35 45 -40 58 -5 12 -16 22 -24 22 -17 0 -74 63 -86 96 -5 13 -16 24
-24 24 -17 0 -94 85 -107 118 -5 12 -14 22 -22 22 -12 0 -44 30 -91 88 l-19
22 210 0 210 0 6 -67z m-3054 5 c-2 -108 15 -99 -234 -130 -121 -15 -240 -30
-265 -32 -25 -3 -169 -21 -320 -40 -151 -20 -283 -36 -292 -36 -15 0 -18 9
-18 59 0 42 5 62 17 72 10 9 207 39 552 85 295 40 542 72 549 73 8 1 12 -15
11 -51z m-849 23 c0 -18 -3 -19 -30 -9 -44 15 -46 28 -6 28 29 0 36 -4 36 -19z
m103 -3 l42 -23 -33 -3 c-18 -2 -30 -7 -27 -11 2 -5 -10 -5 -28 -2 -25 5 -33
12 -35 34 -4 35 22 36 81 5z m-193 -33 c0 -33 -4 -45 -15 -45 -11 0 -15 12
-15 45 0 33 4 45 15 45 11 0 15 -12 15 -45z m2840 24 c0 -11 -4 -17 -10 -14
-5 3 -10 13 -10 21 0 8 5 14 10 14 6 0 10 -9 10 -21z m-2890 -28 c0 -26 -5
-41 -16 -45 -36 -14 -44 -7 -44 39 0 43 1 45 30 45 28 0 30 -2 30 -39z m104
24 c43 -18 48 -38 9 -33 -16 2 -33 -3 -40 -12 -10 -12 -12 -9 -13 23 0 20 2
37 4 37 2 0 20 -7 40 -15z m2706 -15 c0 -28 -2 -30 -20 -20 -31 17 -24 45 13
49 4 1 7 -13 7 -29z m49 -23 c2 -46 1 -48 -18 -37 -29 15 -30 86 -3 86 15 0
19 -9 21 -49z m-542 -94 c-2 -27 -3 -5 -3 47 0 52 1 74 3 48 2 -27 2 -69 0
-95z m913 61 c0 -34 -4 -53 -10 -49 -5 3 -10 28 -10 56 0 27 5 49 10 49 6 0
10 -25 10 -56z m-340 0 c0 -27 -4 -43 -10 -39 -5 3 -10 24 -10 46 0 21 5 39
10 39 6 0 10 -21 10 -46z m-2965 26 c8 -13 -5 -13 -25 0 -13 8 -13 10 2 10 9
0 20 -4 23 -10z m-58 -22 c-3 -8 -6 -5 -6 6 -1 11 2 17 5 13 3 -3 4 -12 1 -19z
m1983 -23 c0 -25 -3 -45 -7 -45 -5 0 -80 -9 -168 -20 -218 -27 -205 -28 -205
20 0 22 1 40 3 40 8 2 354 48 365 49 8 1 12 -14 12 -44z m-1935 29 c13 -5 14
-8 3 -15 -19 -13 -28 -11 -28 6 0 17 2 18 25 9z m3825 -96 c0 -50 -2 -89 -4
-87 -9 10 -14 179 -6 179 6 0 10 -40 10 -92z m-1443 15 c-2 -16 -4 -5 -4 22 0
28 2 40 4 28 2 -13 2 -35 0 -50z m346 35 c2 -18 3 -35 2 -36 -2 -2 -22 -6 -44
-9 l-41 -6 0 36 c0 29 4 36 23 40 50 10 55 8 60 -25z m-1666 -94 c-4 -5 -1071
-134 -1104 -134 -18 0 -23 5 -23 28 0 15 4 32 8 38 4 6 243 41 562 80 l555 70
3 -39 c2 -22 2 -41 -1 -43z m873 -139 l0 -195 -27 1 c-16 1 -68 -3 -118 -9
-49 -6 -97 -10 -105 -10 -8 -1 -41 -4 -72 -8 l-58 -7 0 190 0 190 173 20 c94
11 180 21 190 22 16 1 17 -15 17 -194z m800 25 c0 -88 -1 -160 -2 -160 -2 -1
-20 -3 -40 -6 l-38 -6 0 100 c0 54 -3 126 -6 160 l-7 61 34 4 c19 2 40 5 47 5
9 2 12 -36 12 -158z m480 79 c0 -47 -3 -68 -11 -64 -6 4 -9 26 -8 49 2 23 -1
47 -5 54 -8 13 0 32 15 32 5 0 9 -32 9 -71z m-1233 -91 c-2 -29 -3 -6 -3 52 0
58 1 81 3 53 2 -29 2 -77 0 -105z m1153 121 c0 -38 -24 -35 -28 4 -2 19 1 27
12 27 11 0 16 -10 16 -31z m600 -14 c0 -33 -4 -45 -15 -45 -11 0 -15 11 -15
38 0 21 3 42 7 45 16 16 23 4 23 -38z m-560 -17 c0 -35 -2 -39 -15 -28 -8 7
-15 28 -15 46 0 26 4 32 15 28 10 -4 15 -20 15 -46z m327 -35 c-2 -16 -4 -3
-4 27 0 30 2 43 4 28 2 -16 2 -40 0 -55z m451 -73 c0 -40 -1 -42 -8 -15 -4 17
-8 59 -7 95 l0 65 7 -50 c5 -27 8 -70 8 -95z m-2908 60 c0 -33 -4 -60 -10 -60
-5 0 -30 10 -55 22 -40 19 -45 26 -45 54 0 35 -4 33 93 42 14 2 17 -7 17 -58z
m-130 10 c0 -30 0 -30 -57 -30 -44 0 -54 -3 -43 -11 13 -9 13 -10 0 -6 -8 2
-16 17 -18 34 -3 34 5 39 81 42 35 1 37 -1 37 -29z m-140 -10 c0 -16 -3 -30
-7 -30 -17 0 -93 33 -93 41 0 4 19 10 43 12 23 2 45 4 50 5 4 1 7 -11 7 -28z
m2707 8 c-3 -8 -6 -5 -6 6 -1 11 2 17 5 13 3 -3 4 -12 1 -19z m-1520 -65 c-2
-16 -4 -3 -4 27 0 30 2 43 4 28 2 -16 2 -40 0 -55z m-1357 37 c0 -17 -5 -30
-12 -30 -7 0 -30 -3 -50 -6 -37 -6 -38 -6 -38 24 0 29 3 31 43 35 23 2 45 4
50 5 4 1 7 -11 7 -28z m124 -15 c2 -6 -14 -9 -40 -6 -38 3 -44 6 -44 26 0 24
0 24 40 7 22 -9 41 -21 44 -27z m3008 20 c5 -22 2 -25 -23 -25 -24 0 -29 4
-29 25 0 20 5 25 24 25 17 0 25 -7 28 -25z m-3812 -35 c0 -25 -5 -40 -12 -40
-7 0 -85 -9 -173 -20 -88 -11 -163 -20 -167 -20 -5 0 -8 18 -8 40 0 35 3 40
23 41 12 0 83 9 157 18 195 26 180 28 180 -19z m560 16 c0 -26 -16 -36 -59
-36 -25 0 -51 -15 -51 -31 0 -4 23 -15 50 -25 43 -16 50 -22 50 -45 0 -25 -3
-27 -52 -31 -62 -5 -65 -4 -48 17 10 12 10 19 2 27 -7 7 -12 40 -12 74 l0 63
33 4 c80 10 87 8 87 -17z m-138 -49 c-4 -48 -7 -57 -21 -52 -9 4 -33 12 -53
18 -34 11 -38 16 -38 44 0 26 5 34 23 38 16 3 83 11 93 10 1 0 -1 -26 -4 -58z
m3295 1 c-2 -13 -4 -5 -4 17 -1 22 1 32 4 23 2 -10 2 -28 0 -40z m-3427 8 c0
-33 -1 -34 -50 -40 -61 -8 -70 -4 -70 34 0 27 3 29 43 33 23 2 50 4 60 5 13 2
17 -6 17 -32z m700 5 c0 -32 -7 -36 -74 -46 -42 -7 -66 -25 -31 -25 8 0 15 -4
15 -10 0 -5 -9 -10 -21 -10 -18 0 -20 4 -14 48 9 57 25 72 82 72 41 0 43 -1
43 -29z m71 9 c22 -12 45 -18 52 -14 9 5 9 4 0 -6 -9 -10 -10 -17 -1 -27 6 -7
8 -16 5 -20 -10 -9 -87 -11 -81 -2 3 5 21 9 40 9 21 0 33 4 29 10 -3 6 -26 10
-51 10 -42 0 -44 1 -44 30 0 36 0 36 51 10z m3079 -30 c0 -61 77 -1759 85
-1885 3 -49 3 -86 -2 -82 -10 11 -100 2017 -91 2017 5 0 8 -22 8 -50z m-3290
-4 c0 -56 -19 -76 -71 -76 l-39 0 0 54 0 55 38 4 c20 2 45 4 55 5 14 2 17 -6
17 -42z m2900 -12 c0 -34 -4 -53 -10 -49 -5 3 -10 28 -10 56 0 27 5 49 10 49
6 0 10 -25 10 -56z m70 -54 c0 -109 0 -110 -24 -110 -32 0 -36 15 -36 126 l0
94 30 0 30 0 0 -110z m-3803 53 c-3 -10 -5 -2 -5 17 0 19 2 27 5 18 2 -10 2
-26 0 -35z m133 27 c0 -23 2 -23 -39 -9 -41 15 -40 29 4 29 28 0 35 -4 35 -20z
m522 -43 c-2 -29 -6 -54 -7 -55 -2 -2 -22 -6 -44 -9 l-41 -6 0 57 c0 56 0 56
31 56 16 0 28 4 25 9 -3 4 5 6 18 4 21 -4 23 -9 18 -56z m25 -34 c-2 -21 -4
-6 -4 32 0 39 2 55 4 38 2 -18 2 -50 0 -70z m2703 36 c0 -37 -4 -58 -10 -54
-5 3 -10 31 -10 61 0 30 5 54 10 54 6 0 10 -27 10 -61z m-3256 11 c1 0 3 -6 3
-12 0 -9 -14 -12 -44 -9 l-44 3 6 -36 c7 -36 1 -43 -24 -27 -10 7 -12 22 -7
64 l7 56 50 -19 c27 -11 51 -20 53 -20z m583 -42 c-2 -18 -4 -6 -4 27 0 33 2
48 4 33 2 -15 2 -42 0 -60z m2333 61 c0 -11 -4 -17 -10 -14 -5 3 -10 13 -10
21 0 8 5 14 10 14 6 0 10 -9 10 -21z m-80 -29 c0 -38 -1 -39 -20 -28 -12 8
-20 24 -20 40 0 21 5 28 20 28 17 0 20 -7 20 -40z m-2430 16 c0 -8 -7 -17 -16
-20 -8 -3 -12 -2 -9 4 6 9 -10 14 -42 13 -7 -1 -10 3 -7 8 9 15 74 11 74 -5z
m2370 4 c0 -5 -4 -10 -9 -10 -6 0 -13 5 -16 10 -3 6 1 10 9 10 9 0 16 -4 16
-10z m98 -2 c7 -7 12 -29 12 -50 0 -36 -2 -38 -20 -28 -15 8 -20 21 -20 50 0
41 7 49 28 28z m-3018 -52 c0 -30 3 -63 6 -73 5 -15 4 -15 -5 -3 -8 11 -11
-14 -11 -97 0 -61 -4 -114 -9 -117 -4 -3 -30 -8 -57 -11 -27 -3 -105 -12 -174
-19 -69 -8 -126 -13 -128 -11 -4 4 16 336 21 341 4 4 286 41 330 43 26 1 27 0
27 -53z m2380 -31 c0 -47 -3 -85 -6 -85 -3 0 -14 5 -25 10 -16 9 -19 22 -19
80 0 67 5 77 38 79 9 1 12 -22 12 -84z m-2090 39 c0 -12 -5 -12 -30 1 -16 9
-30 17 -30 19 0 1 14 1 30 -2 17 -2 30 -10 30 -18z m55 16 c-6 -9 10 -14 42
-13 7 1 10 -3 7 -8 -3 -5 3 -9 13 -10 16 0 16 -1 -2 -9 -18 -7 -19 -8 -2 -15
9 -4 17 -12 17 -18 0 -5 -8 -3 -18 6 -10 10 -28 17 -39 17 -34 0 -53 11 -53
30 0 10 8 21 18 23 9 3 18 5 20 6 2 0 0 -3 -3 -9z m645 -11 c0 -5 -19 -9 -42
-8 -24 0 -37 3 -30 6 6 2 10 8 8 12 -3 4 11 5 30 3 19 -2 34 -8 34 -13z m2070
-25 c0 -27 -4 -43 -10 -39 -5 3 -10 24 -10 46 0 21 5 39 10 39 6 0 10 -21 10
-46z m-2870 -24 c0 -38 -4 -50 -15 -50 -11 0 -15 12 -15 50 0 38 4 50 15 50
11 0 15 -12 15 -50z m65 36 c47 -20 46 -40 0 -33 -34 6 -40 1 -36 -30 1 -7 -3
-13 -9 -13 -5 0 -10 20 -10 45 0 49 4 52 55 31z m-112 -38 c-7 -51 -2 -44 -35
-52 -25 -6 -26 -4 -30 42 l-3 48 37 3 36 2 -5 -43z m989 -36 l-3 -78 -272 -28
c-150 -15 -292 -29 -317 -31 -25 -3 -83 -9 -130 -14 -47 -6 -114 -12 -150 -15
-36 -3 -99 -10 -140 -16 -127 -16 -120 -19 -120 51 0 37 5 66 13 74 9 9 186
32 543 73 291 33 540 60 554 61 25 1 25 1 22 -77z m2495 -102 c0 -99 -1 -114
-7 -70 -11 74 -10 265 0 225 4 -16 8 -86 7 -155z m450 133 c-3 -10 -5 -4 -5
12 0 17 2 24 5 18 2 -7 2 -21 0 -30z m-1630 -125 c-2 -29 -3 -6 -3 52 0 58 1
81 3 53 2 -29 2 -77 0 -105z m-2073 111 c-8 -14 -71 -11 -71 4 0 8 13 11 39 9
21 -2 35 -8 32 -13z m3506 11 c0 -5 -2 -10 -4 -10 -3 0 -8 5 -11 10 -3 6 -1
10 4 10 6 0 11 -4 11 -10z m30 -10 c0 -11 -4 -20 -10 -20 -5 0 -10 9 -10 20 0
11 5 20 10 20 6 0 10 -9 10 -20z m-3850 0 c8 -5 11 -10 5 -10 -5 0 -17 5 -25
10 -8 5 -10 10 -5 10 6 0 17 -5 25 -10z m2750 -30 l0 -40 -40 0 c-39 0 -40 1
-40 34 0 32 3 35 33 39 17 2 35 5 40 5 4 1 7 -16 7 -38z m-2550 20 c0 -5 -7
-10 -15 -10 -8 0 -15 5 -15 10 0 6 7 10 15 10 8 0 15 -4 15 -10z m2207 -72
c-2 -18 -4 -6 -4 27 0 33 2 48 4 33 2 -15 2 -42 0 -60z m1484 50 c-3 -21 -6
-26 -9 -15 -3 17 3 47 11 47 2 0 1 -15 -2 -32z m-3897 16 c23 -9 20 -24 -4
-24 -11 0 -20 7 -20 15 0 17 2 18 24 9z m3533 -71 c-2 -16 -4 -3 -4 27 0 30 2
43 4 28 2 -16 2 -40 0 -55z m-287 -14 c0 -39 -4 -68 -9 -65 -12 8 -19 86 -7
86 6 0 5 5 -2 12 -17 17 -15 38 3 38 12 0 15 -15 15 -71z m-130 40 c0 -18 -2
-19 -15 -9 -8 7 -15 16 -15 21 0 5 7 9 15 9 9 0 15 -9 15 -21z m50 -14 c0 -41
-16 -46 -30 -9 -14 36 -13 44 10 44 16 0 20 -7 20 -35z m-1210 -18 l0 -43
-142 -13 c-79 -7 -164 -15 -190 -18 l-48 -6 0 45 0 46 133 12 c72 6 137 13
142 15 6 2 31 4 58 4 l47 1 0 -43z m1250 -8 c0 -30 -3 -37 -15 -33 -10 4 -15
20 -15 45 0 30 3 37 15 33 10 -4 15 -20 15 -45z m307 4 c-3 -10 -5 -2 -5 17 0
19 2 27 5 18 2 -10 2 -26 0 -35z m261 0 c3 -20 -1 -23 -27 -23 -27 0 -31 4
-31 26 0 22 4 25 28 22 19 -2 28 -9 30 -25z m-1015 -90 c4 -58 7 -130 7 -158
0 -51 -1 -53 -31 -59 -62 -12 -59 -20 -59 159 l0 165 38 0 39 0 6 -107z m1227
66 c0 -11 -4 -17 -10 -14 -5 3 -10 15 -10 26 0 11 5 17 10 14 6 -3 10 -15 10
-26z m37 -36 c-2 -16 -4 -5 -4 22 0 28 2 40 4 28 2 -13 2 -35 0 -50z m-2947 7
c0 -33 -4 -40 -22 -44 -28 -6 -1065 -106 -1095 -106 -20 0 -23 5 -23 35 0 20
6 38 13 40 16 6 1029 112 1085 114 l42 1 0 -40z m2597 -7 c-3 -10 -5 -2 -5 17
0 19 2 27 5 18 2 -10 2 -26 0 -35z m103 -65 c0 -51 3 -103 6 -115 6 -20 3 -23
-25 -23 -28 0 -31 3 -31 31 0 16 -3 28 -7 26 -5 -3 -7 35 -5 84 l3 89 30 0 29
0 0 -92z m-70 26 c0 -34 -4 -53 -10 -49 -5 3 -10 28 -10 56 0 27 5 49 10 49 6
0 10 -25 10 -56z m-1750 -149 l0 -195 -42 -2 c-24 -1 -59 -3 -78 -4 -19 -1
-55 -4 -80 -8 -25 -3 -75 -8 -112 -10 l-68 -4 0 194 0 194 23 1 c12 0 74 6
137 13 63 8 139 14 168 15 l52 1 0 -195z m1367 173 c-3 -8 -6 -5 -6 6 -1 11 2
17 5 13 3 -3 4 -12 1 -19z m-1780 -65 c-2 -16 -4 -3 -4 27 0 30 2 43 4 28 2
-16 2 -40 0 -55z m460 -90 c-2 -32 -3 -8 -3 52 0 61 1 87 3 58 2 -29 2 -78 0
-110z m1353 87 c0 -33 -4 -60 -10 -60 -6 0 -10 27 -10 60 0 33 4 60 10 60 6 0
10 -27 10 -60z m-2294 8 c-3 -13 -6 -39 -6 -60 l0 -36 -55 21 c-51 20 -55 25
-55 54 0 31 1 32 53 36 28 2 56 4 61 5 4 1 6 -8 2 -20z m-136 -28 l0 -30 -60
0 c-57 0 -60 1 -60 24 0 27 13 33 78 35 40 1 42 0 42 -29z m-140 -4 c0 -27 -8
-31 -82 -41 -46 -6 -48 -5 -48 19 0 21 6 26 43 34 73 17 87 15 87 -12z m1197
-73 c-2 -21 -4 -6 -4 32 0 39 2 55 4 38 2 -18 2 -50 0 -70z m1037 18 c-8 -79
-24 -97 -24 -26 0 25 5 45 10 45 6 0 10 14 10 32 0 17 2 29 5 26 3 -3 2 -37
-1 -77z m-3094 30 c0 -47 6 -45 -180 -61 -69 -6 -137 -13 -152 -15 -27 -4 -28
-3 -28 35 0 22 1 40 3 41 4 1 322 37 340 38 13 1 17 -7 17 -38z m707 -103 c-2
-29 -3 -8 -3 47 0 55 1 79 3 53 2 -26 2 -71 0 -100z m2303 85 c0 -45 0 -45
-22 -31 -30 20 -37 75 -11 80 28 7 33 0 33 -49z m50 47 c0 -5 -7 -7 -15 -4 -8
4 -15 8 -15 10 0 2 7 4 15 4 8 0 15 -4 15 -10z m17 -12 c-3 -8 -6 -5 -6 6 -1
11 2 17 5 13 3 -3 4 -12 1 -19z m594 -461 c9 -260 15 -474 13 -476 -2 -2 -6
-2 -8 0 -4 4 -36 822 -36 919 0 24 3 40 7 36 4 -4 15 -220 24 -479z m269 447
c0 -14 -4 -22 -10 -19 -5 3 -10 17 -10 31 0 14 4 22 10 19 6 -3 10 -17 10 -31z
m37 14 c-3 -8 -6 -5 -6 6 -1 11 2 17 5 13 3 -3 4 -12 1 -19z m-3297 -12 c0
-27 -16 -36 -66 -36 -32 0 -35 2 -28 23 9 29 22 37 62 37 27 0 32 -4 32 -24z
m2220 14 c0 -5 -4 -10 -10 -10 -5 0 -10 5 -10 10 0 6 5 10 10 10 6 0 10 -4 10
-10z m50 -16 c0 -20 -4 -25 -16 -20 -9 3 -18 6 -20 6 -2 0 -4 9 -4 20 0 13 7
20 20 20 15 0 20 -7 20 -26z m960 10 c0 -8 -4 -12 -10 -9 -5 3 -10 10 -10 16
0 5 5 9 10 9 6 0 10 -7 10 -16z m-3342 -21 c-3 -25 -7 -28 -48 -31 -45 -3 -74
-18 -65 -32 2 -4 25 -13 50 -20 37 -10 45 -17 45 -36 0 -23 -3 -24 -57 -23
-32 0 -52 3 -45 6 14 6 16 33 2 33 -6 0 -10 26 -10 59 l0 60 33 4 c17 2 47 5
65 5 31 2 33 0 30 -25z m2480 15 c7 -7 12 -31 12 -55 0 -41 -1 -42 -20 -31
-15 10 -20 24 -20 55 0 44 7 52 28 31z m-2618 -53 c0 -30 -3 -55 -7 -55 -3 0
-30 8 -60 17 -50 16 -53 19 -53 49 0 32 1 33 48 37 26 2 53 4 60 5 8 1 12 -15
12 -53z m-140 5 c0 -32 -1 -32 -81 -34 -31 -1 -35 2 -37 26 -2 30 8 35 76 37
40 1 42 0 42 -29z m755 20 c-6 -9 10 -14 42 -13 7 1 11 -3 8 -7 -3 -5 3 -11
12 -13 10 -3 3 -5 -15 -6 -19 -1 -31 -5 -27 -11 4 -6 -2 -7 -17 -1 -27 10 -36
40 -16 52 17 11 20 11 13 -1z m-1028 -47 c-3 -10 -5 -2 -5 17 0 19 2 27 5 18
2 -10 2 -26 0 -35z m133 32 c0 -17 -4 -18 -37 -9 -33 9 -28 24 7 24 20 0 30
-5 30 -15z m700 -53 l-5 -57 -47 -3 -48 -3 0 55 c0 44 3 56 16 56 8 0 13 3 11
8 -3 4 14 6 37 4 l41 -4 -5 -56z m150 52 c0 -12 -6 -15 -20 -10 -52 16 -61 15
-20 -3 l45 -19 -62 -7 c-35 -4 -63 -12 -63 -16 0 -5 7 -9 15 -9 8 0 15 -9 15
-20 0 -13 -7 -20 -20 -20 -18 0 -20 7 -20 54 0 52 1 55 28 59 68 10 102 7 102
-9z m-892 -15 c27 -8 40 -17 39 -28 -1 -13 -10 -15 -44 -12 -27 2 -43 -1 -43
-8 0 -6 4 -11 9 -11 4 0 6 -12 3 -26 -3 -17 -9 -23 -19 -20 -8 3 -17 6 -19 6
-6 0 -5 53 2 89 4 20 11 30 19 27 7 -2 31 -10 53 -17z m3509 -61 c-2 -18 -4
-6 -4 27 0 33 2 48 4 33 2 -15 2 -42 0 -60z m-2880 -10 c-2 -18 -4 -6 -4 27 0
33 2 48 4 33 2 -15 2 -42 0 -60z m-740 -10 c-4 -46 -7 -121 -7 -168 0 -47 -4
-91 -9 -98 -4 -7 -28 -15 -52 -17 -69 -7 -283 -25 -298 -25 -11 0 -12 30 -6
173 4 94 9 174 11 176 3 3 205 26 353 40 11 1 13 -14 8 -81z m683 27 c0 -47
-3 -55 -19 -55 -10 0 -33 -3 -50 -6 l-31 -6 0 61 0 61 50 0 50 0 0 -55z m1737
-87 c-2 -29 -3 -8 -3 47 0 55 1 79 3 53 2 -26 2 -71 0 -100z m-1857 119 c0 -7
-9 -13 -19 -13 -11 0 -17 5 -14 10 4 5 -3 7 -15 4 -12 -4 -20 -2 -16 3 8 14
64 11 64 -4z m1840 -72 c0 -47 -3 -85 -6 -85 -3 0 -14 5 -25 10 -16 9 -19 22
-19 85 0 73 1 75 25 75 25 0 25 -1 25 -85z m1197 23 c-2 -13 -4 -5 -4 17 -1
22 1 32 4 23 2 -10 2 -28 0 -40z m440 30 c-3 -8 -6 -5 -6 6 -1 11 2 17 5 13 3
-3 4 -12 1 -19z m33 -14 c0 -14 -4 -22 -10 -19 -5 3 -10 17 -10 31 0 14 4 22
10 19 6 -3 10 -17 10 -31z m42 -26 c2 -20 0 -34 -4 -32 -4 3 -7 26 -7 52 1 49
5 42 11 -20z m-3112 21 c0 -11 -7 -19 -17 -19 -10 0 -28 -3 -40 -6 -19 -5 -23
-2 -23 15 0 15 6 21 21 21 11 0 18 4 15 9 -3 4 6 6 19 3 16 -3 25 -11 25 -23z
m130 21 c0 -6 -12 -8 -27 -5 l-28 6 30 -15 c30 -14 30 -14 5 -15 -14 -1 -35
-4 -47 -7 -18 -5 -23 -2 -23 14 0 13 8 22 23 25 42 8 67 7 67 -3z m2730 -15
c0 -21 -5 -25 -30 -25 -25 0 -30 4 -30 25 0 21 5 25 30 25 25 0 30 -4 30 -25z
m-3572 -10 c2 -24 0 -25 -33 -19 -35 6 -35 6 -35 -30 0 -20 -4 -36 -10 -36 -5
0 -10 22 -10 49 l0 50 43 4 c23 2 42 4 42 5 0 1 2 -9 3 -23z m82 9 c13 -3 31
-13 39 -22 13 -13 12 -14 -9 -6 -14 5 -41 8 -60 7 -27 -1 -31 1 -15 7 17 7 17
9 3 9 -10 1 -18 6 -18 12 0 6 8 8 18 5 9 -2 28 -8 42 -12z m657 -16 c-3 -7 -5
-2 -5 12 0 14 2 19 5 13 2 -7 2 -19 0 -25z m-837 -27 c0 -34 -4 -51 -15 -55
-12 -4 -15 3 -15 33 0 22 3 46 6 55 12 32 24 15 24 -33z m2317 -88 c-2 -27 -3
-5 -3 47 0 52 1 74 3 48 2 -27 2 -69 0 -95z m783 127 c0 -5 -7 -7 -15 -4 -8 4
-15 8 -15 10 0 2 7 4 15 4 8 0 15 -4 15 -10z m40 -60 c0 -40 -4 -70 -10 -70
-5 0 -10 15 -11 33 -1 17 -3 49 -4 70 -3 27 0 37 11 37 11 0 14 -16 14 -70z
m-3184 29 c-3 -17 -6 -40 -6 -50 0 -14 -7 -19 -30 -19 -29 0 -30 2 -30 43 0
52 4 57 43 57 28 0 29 -2 23 -31z m3014 16 c0 -17 -2 -18 -25 -9 -13 5 -14 8
-3 15 19 13 28 11 28 -6z m40 -15 c0 -22 -4 -28 -15 -24 -8 4 -15 17 -15 30 0
15 6 24 15 24 10 0 15 -10 15 -30z m50 -15 c0 -43 -1 -44 -20 -33 -13 9 -20
24 -20 45 0 26 4 33 20 33 17 0 20 -7 20 -45z m-410 -5 l0 -40 -40 0 c-39 0
-40 1 -40 34 0 28 4 35 23 39 54 11 57 9 57 -33z m450 -21 c0 -30 -3 -37 -15
-33 -10 4 -15 20 -15 51 0 39 2 44 15 33 9 -7 15 -29 15 -51z m467 39 c-3 -8
-6 -5 -6 6 -1 11 2 17 5 13 3 -3 4 -12 1 -19z m-2617 -78 l0 -80 -27 1 c-16 0
-55 -2 -88 -5 -109 -11 -392 -34 -415 -34 -18 -1 -472 -39 -552 -47 l-58 -6 0
64 c0 47 4 68 16 78 11 9 174 28 528 60 281 25 530 47 554 48 l42 1 0 -80z
m2650 19 c0 -37 -4 -58 -10 -54 -5 3 -10 31 -10 61 0 30 5 54 10 54 6 0 10
-27 10 -61z m70 -8 c0 -37 3 -89 6 -115 7 -46 7 -46 -23 -46 -30 0 -30 1 -36
68 -4 37 -7 88 -7 115 0 46 1 47 30 47 l30 0 0 -69z m-3485 50 l-50 -7 35 -11
c19 -6 27 -12 18 -12 -22 -1 -68 20 -68 31 0 4 26 7 58 6 l57 -1 -50 -6z
m2112 -83 c-2 -18 -4 -4 -4 32 0 36 2 50 4 33 2 -18 2 -48 0 -65z m-2480 45
c-3 -10 -5 -4 -5 12 0 17 2 24 5 18 2 -7 2 -21 0 -30z m53 27 c8 -5 11 -10 5
-10 -5 0 -17 5 -25 10 -8 5 -10 10 -5 10 6 0 17 -5 25 -10z m200 -10 c0 -11
-4 -20 -10 -20 -5 0 -10 9 -10 20 0 11 5 20 10 20 6 0 10 -9 10 -20z m215 10
c13 -6 15 -9 5 -9 -8 0 -22 4 -30 9 -18 12 -2 12 25 0z m3007 -155 c3 -168 -4
-215 -16 -104 -9 94 -7 269 4 269 5 0 10 -69 12 -165z m-3422 135 c13 -9 13
-11 0 -20 -22 -15 -30 -12 -30 10 0 22 8 25 30 10z m3347 -32 c-3 -8 -6 -5 -6
6 -1 11 2 17 5 13 3 -3 4 -12 1 -19z m-567 -152 l0 -164 -40 -4 -40 -4 0 168
0 168 40 0 40 0 0 -164z m1317 132 c-3 -8 -6 -5 -6 6 -1 11 2 17 5 13 3 -3 4
-12 1 -19z m-717 -54 c0 -41 -4 -63 -10 -59 -5 3 -10 33 -10 66 0 33 4 59 10
59 6 0 10 -29 10 -66z m477 14 c-3 -7 -5 -2 -5 12 0 14 2 19 5 13 2 -7 2 -19
0 -25z m33 1 c0 -17 -4 -28 -10 -24 -5 3 -10 17 -10 31 0 13 5 24 10 24 6 0
10 -14 10 -31z m-1920 -23 l0 -44 -47 -6 c-27 -3 -88 -8 -138 -11 -49 -3 -114
-8 -142 -12 l-53 -5 0 46 c0 30 4 46 13 47 6 0 75 6 152 13 77 7 157 14 178
15 l37 1 0 -44z m-890 -51 c0 -40 -2 -45 -23 -45 -13 0 -259 -18 -547 -40
-288 -22 -536 -40 -552 -40 -26 0 -28 3 -28 40 0 31 4 40 18 41 9 0 247 20
527 43 281 24 531 44 558 45 l47 1 0 -45z m2977 3 c-3 -8 -6 -5 -6 6 -1 11 2
17 5 13 3 -3 4 -12 1 -19z m-58 -31 c1 -5 -3 -5 -9 -2 -5 3 -10 16 -9 28 0 21
1 21 9 2 5 -11 9 -24 9 -28z m19 2 c-3 -20 -5 -19 -9 9 -3 20 -2 29 4 23 5 -5
7 -19 5 -32z m-1008 21 c0 -13 -11 -13 -30 0 -12 8 -11 10 8 10 12 0 22 -4 22
-10z m17 -12 c-3 -8 -6 -5 -6 6 -1 11 2 17 5 13 3 -3 4 -12 1 -19z m18 -85
c-9 -60 -25 -54 -24 10 2 48 2 50 9 17 7 -32 8 -29 10 25 2 43 4 50 7 25 3
-19 2 -54 -2 -77z m502 40 c-2 -16 -4 -5 -4 22 0 28 2 40 4 28 2 -13 2 -35 0
-50z m20 -15 c-2 -18 -4 -6 -4 27 0 33 2 48 4 33 2 -15 2 -42 0 -60z m-1597
-128 c0 -110 -3 -201 -7 -201 -26 -5 -74 -8 -198 -13 -77 -4 -148 -9 -157 -12
-17 -5 -18 9 -18 194 l0 200 53 6 c28 3 102 9 162 12 61 3 112 8 114 10 2 2
15 4 28 4 l23 0 0 -200z m870 191 c0 -5 3 -17 6 -26 6 -14 3 -14 -20 -4 -28
13 -33 24 -13 32 19 8 27 8 27 -2z m60 -31 c0 -38 -2 -40 -20 -30 -13 7 -20
21 -20 40 0 23 4 30 20 30 17 0 20 -7 20 -40z m55 -6 c7 -52 5 -58 -24 -49
-17 5 -21 15 -21 51 0 36 3 44 19 44 15 0 20 -10 26 -46z m1115 -14 c0 -20 -2
-22 -10 -10 -5 8 -10 26 -10 40 0 20 2 22 10 10 5 -8 10 -26 10 -40z m-1076
34 c12 -4 16 -20 16 -55 0 -47 -1 -49 -20 -39 -15 8 -20 21 -20 55 0 48 0 48
24 39z m816 -19 c0 -21 -5 -25 -30 -25 -25 0 -30 4 -30 25 0 21 5 25 30 25 25
0 30 -4 30 -25z m-1793 -137 c-2 -29 -3 -6 -3 52 0 58 1 81 3 53 2 -29 2 -77
0 -105z m-2097 79 l0 -43 -167 -12 c-222 -16 -203 -18 -203 23 0 20 6 38 13
41 7 2 85 11 173 18 87 7 165 14 172 15 8 1 12 -14 12 -42z m1143 -4 c-3 -27
-10 -53 -15 -60 -6 -7 -4 -13 4 -17 7 -3 0 -2 -17 2 -16 3 -42 7 -56 7 -27 0
-35 20 -12 29 9 4 11 1 7 -6 -5 -7 1 -9 19 -6 15 3 24 1 21 -3 -3 -5 2 -9 10
-9 37 0 21 19 -24 30 -48 11 -50 13 -50 46 l0 34 60 0 60 0 -7 -47z m-133 7
c0 -29 -1 -30 -49 -30 -62 0 -81 7 -81 30 0 23 13 28 78 29 51 1 52 1 52 -29z
m-293 -27 c-3 -10 -5 -2 -5 17 0 19 2 27 5 18 2 -10 2 -26 0 -35z m143 32 c0
-18 -13 -18 -60 0 l-35 13 48 1 c35 1 47 -3 47 -14z m1217 -97 c-2 -24 -4 -7
-4 37 0 44 2 63 4 43 2 -21 2 -57 0 -80z m1743 51 c0 -37 -4 -58 -10 -54 -18
11 -12 115 7 115 2 0 3 -27 3 -61z m75 -50 c4 -61 5 -112 3 -114 -2 -2 -15 -6
-31 -10 -26 -7 -27 -6 -27 31 0 22 -3 76 -7 122 l-6 82 30 0 30 0 8 -111z
m-3205 71 c0 -29 -1 -30 -50 -30 -46 0 -50 2 -50 24 0 19 6 26 28 29 68 10 72
9 72 -23z m126 10 c62 -18 52 -36 -18 -32 -54 4 -58 5 -58 29 0 18 4 23 18 19
9 -2 35 -10 58 -16z m3371 -17 c-3 -10 -5 -4 -5 12 0 17 2 24 5 18 2 -7 2 -21
0 -30z m-3617 -2 c0 -29 -2 -30 -52 -33 -30 -2 -53 -8 -56 -15 -6 -19 26 -27
53 -13 13 7 29 10 37 7 7 -3 4 -6 -9 -6 -12 -1 -25 -6 -29 -12 -5 -8 1 -10 18
-7 18 3 24 0 25 -14 1 -13 -5 -18 -26 -18 -16 0 -41 -2 -57 -4 -16 -2 -21 -1
-11 1 9 2 15 9 11 14 -3 5 -10 6 -16 3 -7 -4 -8 -2 -4 4 4 7 4 12 -1 12 -4 0
-6 22 -5 49 4 48 5 50 35 54 83 10 87 9 87 -22z m-140 -30 c0 -28 -5 -53 -12
-57 -7 -5 -8 -3 -3 6 6 10 1 12 -18 8 -15 -3 -24 -1 -21 3 3 5 -4 9 -15 9 -36
0 -51 12 -51 40 0 30 9 34 93 38 26 2 27 0 27 -47z m2890 39 c0 -5 -7 -7 -15
-4 -8 4 -15 8 -15 10 0 2 7 4 15 4 8 0 15 -4 15 -10z m40 -60 c0 -40 -4 -70
-10 -70 -5 0 -10 15 -11 33 -1 17 -3 49 -4 70 -3 27 0 37 11 37 11 0 14 -16
14 -70z m-3068 30 c-3 -23 -10 -30 -26 -30 -39 0 -96 21 -96 35 0 13 23 18
101 23 23 2 25 -1 21 -28z m2888 21 c0 -5 3 -16 6 -25 4 -10 1 -16 -9 -16 -14
0 -27 20 -27 41 0 5 7 9 15 9 8 0 15 -4 15 -9z m50 -27 c0 -45 -24 -42 -28 4
-2 24 1 32 12 32 12 0 16 -10 16 -36z m48 -17 c3 -46 2 -48 -17 -37 -28 15
-31 93 -3 88 13 -2 18 -15 20 -51z m-3261 11 c-3 -7 -5 -2 -5 12 0 14 2 19 5
13 2 -7 2 -19 0 -25z m133 22 c0 -5 -9 -10 -20 -10 -11 0 -20 5 -20 10 0 6 9
10 20 10 11 0 20 -4 20 -10z m-29 -17 c22 -4 28 -11 27 -27 -2 -18 -7 -21 -45
-17 -27 2 -43 -1 -43 -8 0 -6 4 -11 9 -11 4 0 6 -11 4 -24 -4 -17 -10 -22 -24
-19 -15 4 -19 14 -19 48 0 63 8 78 38 70 13 -3 37 -9 53 -12z m3197 -31 c2
-33 0 -42 -12 -42 -12 0 -16 11 -16 46 0 59 24 55 28 -4z m195 -179 c13 -458
16 -728 8 -688 -5 22 -11 153 -15 290 -3 138 -9 334 -13 438 -4 121 -3 187 4
187 6 0 12 -88 16 -227z m-2506 203 c12 -12 -8 -19 -62 -24 -30 -2 -55 -8 -55
-13 0 -5 7 -9 15 -9 10 0 15 -10 15 -30 0 -23 -4 -30 -20 -30 -18 0 -20 7 -20
61 l0 62 61 -6 c33 -3 63 -8 66 -11z m-1012 -133 c-9 -210 -11 -221 -43 -227
-15 -3 -98 -8 -185 -11 l-159 -7 6 63 c3 35 8 116 12 180 l6 117 121 9 c67 6
150 11 185 11 l63 2 -6 -137z m695 97 c0 -15 -3 -42 -6 -59 -6 -30 -9 -31 -56
-31 -27 0 -47 4 -44 8 3 5 6 33 7 63 l2 54 49 -3 c45 -4 48 -6 48 -32z m51
-26 l-9 -59 -1 56 c-1 49 5 76 16 66 1 -2 -1 -30 -6 -63z m119 6 l0 -60 -55 0
c-54 0 -55 1 -55 29 0 16 3 43 6 60 6 30 9 31 55 31 l49 0 0 -60z m1561 28 l2
-33 7 30 c6 24 7 21 4 -14 -2 -24 -4 -66 -4 -92 0 -48 0 -48 -25 -37 -24 11
-25 15 -25 95 0 76 2 83 20 83 16 0 20 -7 21 -32z m-2192 6 c2 -2 -10 -4 -27
-4 -18 0 -32 5 -32 10 0 9 47 4 59 -6z m3781 6 c0 -5 -2 -10 -4 -10 -3 0 -8 5
-11 10 -3 6 -1 10 4 10 6 0 11 -4 11 -10z m-80 -21 c0 -11 -4 -17 -10 -14 -5
3 -10 13 -10 21 0 8 5 14 10 14 6 0 10 -9 10 -21z m17 -16 c-3 -10 -5 -4 -5
12 0 17 2 24 5 18 2 -7 2 -21 0 -30z m33 6 c0 -17 -4 -28 -10 -24 -5 3 -10 17
-10 31 0 13 5 24 10 24 6 0 10 -14 10 -31z m-2973 15 c-3 -3 -12 -4 -19 -1 -8
3 -5 6 6 6 11 1 17 -2 13 -5z m1516 -92 c-7 -107 -23 -114 -23 -9 0 50 3 67
10 57 7 -11 10 -7 10 19 0 19 2 32 4 30 3 -3 2 -46 -1 -97z m347 58 l0 -40
-45 0 c-44 0 -45 0 -45 33 0 43 5 47 52 47 38 0 38 0 38 -40z m567 18 c-3 -8
-6 -5 -6 6 -1 11 2 17 5 13 3 -3 4 -12 1 -19z m720 -10 c-3 -7 -5 -2 -5 12 0
14 2 19 5 13 2 -7 2 -19 0 -25z m-3128 -42 c-9 -8 -10 -5 -5 14 3 14 6 32 7
40 1 8 4 2 6 -14 3 -16 -1 -34 -8 -40z m111 50 c0 -9 -15 -15 -45 -18 -38 -3
-45 0 -45 14 0 15 9 18 45 18 32 0 45 -4 45 -14z m-948 -51 c-3 -39 -8 -55
-18 -55 -15 0 -18 28 -8 79 11 54 29 37 26 -24z m98 44 c0 -7 -11 -9 -29 -6
-32 7 -41 -5 -41 -49 0 -13 -4 -24 -10 -24 -11 0 -14 73 -3 83 11 12 83 8 83
-4z m80 1 c21 -7 19 -8 -17 -9 -24 -1 -43 4 -43 9 0 12 24 12 60 0z m640 3
c-1 -38 -14 -53 -46 -53 -31 0 -34 3 -34 30 0 28 2 30 40 30 22 0 40 -3 40 -7z
m2460 -64 c0 -44 -4 -68 -10 -64 -5 3 -10 35 -10 71 0 36 4 64 10 64 6 0 10
-30 10 -71z m-3324 14 c-6 -48 -18 -63 -48 -63 -15 0 -18 9 -18 48 0 57 4 62
43 62 30 0 30 0 23 -47z m561 -15 c-2 -13 -4 -3 -4 22 0 25 2 35 4 23 2 -13 2
-33 0 -45z m432 26 c10 -9 -45 -3 -59 6 -11 7 -5 8 20 4 19 -4 37 -8 39 -10z
m-741 -10 c23 -5 32 -12 30 -23 -4 -23 -88 -29 -88 -7 0 10 9 16 23 17 16 1
11 5 -18 15 -41 14 -33 14 53 -2z m161 0 c10 -9 -35 -3 -49 6 -11 8 -7 9 15 4
17 -4 32 -8 34 -10z m3601 -41 c0 -58 -6 -53 -13 10 -4 29 -2 45 3 42 6 -4 10
-27 10 -52z m-4153 0 c-3 -10 -5 -2 -5 17 0 19 2 27 5 18 2 -10 2 -26 0 -35z
m263 17 c0 -20 -5 -30 -15 -30 -10 0 -15 10 -15 30 0 20 5 30 15 30 10 0 15
-10 15 -30z m3820 4 c0 -14 -4 -23 -10 -19 -5 3 -10 15 -10 26 0 10 5 19 10
19 6 0 10 -12 10 -26z m17 -21 c-3 -10 -5 -2 -5 17 0 19 2 27 5 18 2 -10 2
-26 0 -35z m-4042 27 c3 -5 -1 -10 -9 -10 -8 0 -18 5 -21 10 -3 6 1 10 9 10 8
0 18 -4 21 -10z m382 -12 c-3 -8 -6 -5 -6 6 -1 11 2 17 5 13 3 -3 4 -12 1 -19z
m48 12 c-3 -5 -13 -10 -21 -10 -8 0 -14 5 -14 10 0 6 9 10 21 10 11 0 17 -4
14 -10z m-165 -15 c0 -8 -4 -15 -10 -15 -5 0 -10 7 -10 15 0 8 5 15 10 15 6 0
10 -7 10 -15z m223 8 c-7 -2 -21 -2 -30 0 -10 3 -4 5 12 5 17 0 24 -2 18 -5z
m597 -73 l0 -80 -50 -2 c-27 -1 -62 -2 -77 -4 -30 -2 -38 -2 -583 -33 -195
-12 -376 -23 -401 -25 l-47 -5 5 67 c3 37 10 73 17 79 8 9 168 23 511 47 275
18 528 34 563 35 l62 1 0 -80z m1720 -89 l0 -169 -40 0 -40 -1 0 42 c0 23 -3
99 -7 170 l-6 127 46 0 47 0 0 -169z m-2800 133 c0 -8 -9 -14 -20 -14 -13 0
-20 7 -20 19 0 14 5 18 20 14 11 -3 20 -12 20 -19z m3567 -51 c-2 -16 -4 -5
-4 22 0 28 2 40 4 28 2 -13 2 -35 0 -50z m20 -35 c-2 -18 -4 -4 -4 32 0 36 2
50 4 33 2 -18 2 -48 0 -65z m243 52 c0 -27 -3 -30 -30 -30 -25 0 -30 4 -30 24
0 23 12 32 48 35 7 1 12 -11 12 -29z m297 -2 c-3 -7 -5 -2 -5 12 0 14 2 19 5
13 2 -7 2 -19 0 -25z m-1107 -48 c0 -13 -11 -13 -30 0 -12 8 -11 10 8 10 12 0
22 -4 22 -10z m27 -12 c-3 -8 -6 -5 -6 6 -1 11 2 17 5 13 3 -3 4 -12 1 -19z
m19 -125 c-12 -30 -26 0 -24 50 l1 52 7 -55 7 -55 3 80 4 80 3 -69 c2 -38 2
-75 -1 -83z m696 90 c4 -65 4 -68 -11 -58 -13 8 -15 115 -2 115 5 0 11 -26 13
-57z m72 5 c3 -29 6 -81 6 -115 l0 -63 -30 0 -30 0 0 69 c0 37 -3 89 -6 115
-7 46 -7 46 23 46 29 0 30 -2 37 -52z m263 5 c-3 -10 -5 -2 -5 17 0 19 2 27 5
18 2 -10 2 -26 0 -35z m-1670 -130 c-2 -32 -3 -6 -3 57 0 63 1 89 3 58 2 -32
2 -84 0 -115z m-447 108 l0 -49 -122 -6 c-68 -4 -153 -9 -190 -12 l-68 -6 0
46 c0 25 1 47 3 47 1 1 83 7 182 14 99 6 183 13 188 13 4 1 7 -20 7 -47z m880
35 c0 -9 -7 -12 -20 -9 -11 3 -20 9 -20 14 0 5 9 9 20 9 11 0 20 -6 20 -14z
m60 -30 c0 -38 -2 -43 -19 -39 -19 5 -31 30 -31 66 0 12 8 17 25 17 23 0 25
-4 25 -44z m50 -11 c0 -53 -1 -55 -20 -45 -15 8 -20 21 -20 55 0 38 3 45 20
45 18 0 20 -7 20 -55z m39 36 c7 -5 16 -32 19 -59 4 -48 3 -50 -17 -45 -17 4
-21 13 -21 43 0 21 -3 45 -6 54 -7 18 4 20 25 7z m-1939 -65 l0 -44 -72 -6
c-88 -7 -999 -56 -1045 -56 -32 0 -33 2 -33 40 0 22 1 40 3 41 4 2 1058 66
1105 68 l42 1 0 -44z m1787 22 c-3 -8 -6 -5 -6 6 -1 11 2 17 5 13 3 -3 4 -12
1 -19z m1093 2 c0 -5 -2 -10 -4 -10 -3 0 -8 5 -11 10 -3 6 -1 10 4 10 6 0 11
-4 11 -10z m-690 -20 c0 -5 -7 -10 -15 -10 -8 0 -15 5 -15 10 0 6 7 10 15 10
8 0 15 -4 15 -10z m40 -65 c0 -43 -4 -75 -10 -75 -5 0 -11 15 -11 33 -1 17 -3
51 -4 75 -2 31 1 42 11 42 11 0 14 -17 14 -75z m570 54 c0 -11 -4 -17 -10 -14
-5 3 -10 13 -10 21 0 8 5 14 10 14 6 0 10 -9 10 -21z m30 -10 c0 -10 -4 -19
-10 -19 -5 0 -10 12 -10 26 0 14 4 23 10 19 6 -3 10 -15 10 -26z m17 -16 c-3
-10 -5 -2 -5 17 0 19 2 27 5 18 2 -10 2 -26 0 -35z m-797 -8 c0 -25 -4 -33
-13 -29 -19 7 -20 64 -1 64 9 0 14 -11 14 -35z m50 -5 c0 -29 -4 -40 -15 -40
-11 0 -15 11 -15 40 0 29 4 40 15 40 11 0 15 -11 15 -40z m48 -14 c3 -42 1
-48 -13 -42 -9 3 -19 6 -21 6 -2 0 -4 21 -4 46 0 38 3 45 18 42 13 -2 18 -15
20 -52z m42 -17 c0 -39 -3 -47 -15 -43 -10 4 -15 21 -15 55 0 39 3 47 15 43
10 -4 15 -21 15 -55z m-1280 -154 c0 -157 -3 -205 -12 -205 -7 -1 -93 -3 -190
-6 l-177 -6 -1 200 -1 199 48 5 c27 3 84 6 128 7 44 1 81 4 84 7 2 2 31 4 63
4 l58 0 0 -205z m2117 123 c-2 -18 -4 -6 -4 27 0 33 2 48 4 33 2 -15 2 -42 0
-60z m-4187 28 l0 -44 -137 -6 c-76 -4 -159 -9 -185 -12 l-48 -6 0 45 0 45
173 9 c94 5 178 10 185 11 8 1 12 -13 12 -42z m2117 -123 c-2 -32 -3 -8 -3 52
0 61 1 87 3 58 2 -29 2 -78 0 -110z m2003 132 c0 -14 -2 -25 -4 -25 -2 0 -6
11 -8 25 -3 14 -1 25 3 25 5 0 9 -11 9 -25z m22 -9 c2 -19 0 -32 -4 -30 -8 5
-12 64 -4 64 2 0 6 -15 8 -34z m-2987 -23 c-9 -55 -13 -63 -27 -63 -10 0 -10
2 0 9 9 5 -4 11 -37 15 -48 6 -51 8 -51 36 0 31 11 36 83 39 l38 1 -6 -37z
m2345 -33 c0 -40 -4 -70 -10 -70 -6 0 -10 30 -10 70 0 40 4 70 10 70 6 0 10
-30 10 -70z m-2480 35 c0 -28 -7 -30 -80 -14 -31 7 -50 16 -50 25 0 11 16 14
65 14 63 0 65 -1 65 -25z m1077 -112 c-2 -27 -3 -5 -3 47 0 52 1 74 3 48 2
-27 2 -69 0 -95z m1637 -80 c4 -120 9 -246 12 -280 3 -38 2 -63 -4 -63 -6 0
-12 66 -16 158 -3 86 -9 212 -12 280 -3 76 -2 122 4 122 6 0 12 -89 16 -217z
m-3017 50 c-2 -32 -3 -8 -3 52 0 61 1 87 3 58 2 -29 2 -78 0 -110z m128 146
l-30 -7 28 -1 c17 -1 27 -7 27 -16 0 -10 -10 -15 -27 -15 -16 0 -45 -3 -65 -6
-37 -6 -38 -6 -38 22 l0 29 68 1 c46 0 58 -2 37 -7z m-269 -15 c-3 -9 -6 -22
-6 -30 0 -10 -13 -14 -50 -14 -36 0 -52 -5 -59 -17 -8 -14 -10 -9 -11 24 0 40
2 42 33 46 78 10 99 8 93 -9z m124 7 c0 -31 -14 -41 -59 -42 -42 -1 -43 -2
-16 -9 l30 -9 -30 2 c-26 2 -30 6 -33 35 l-3 32 55 0 c31 0 56 -4 56 -9z
m-268 -35 l-4 -34 -59 1 c-32 1 -54 4 -48 6 8 2 8 5 1 10 -6 4 -9 17 -5 29 5
19 12 22 62 22 l57 0 -4 -34z m-132 3 c0 -17 -5 -20 -27 -15 -16 3 -45 8 -65
12 -60 10 -44 24 27 24 59 0 65 -2 65 -21z m669 5 c2 -2 -14 -4 -37 -4 -23 0
-42 5 -42 10 0 10 67 4 79 -6z m1418 -31 c-3 -10 -5 -2 -5 17 0 19 2 27 5 18
2 -10 2 -26 0 -35z m-2254 27 c10 0 17 -8 17 -19 0 -16 -9 -21 -45 -27 -25 -3
-45 -10 -45 -15 0 -5 4 -9 9 -9 4 0 6 -11 4 -24 -4 -17 -10 -22 -24 -19 -16 4
-19 15 -19 57 0 29 3 56 8 60 4 4 23 5 42 2 19 -3 43 -6 53 -6z m3534 -42 c-2
-13 -4 -5 -4 17 -1 22 1 32 4 23 2 -10 2 -28 0 -40z m-3662 -39 c4 -44 4 -83
1 -86 -3 -4 -7 16 -8 43 0 27 -4 -15 -8 -94 -4 -79 -11 -146 -14 -150 -6 -6
-356 -21 -364 -16 -7 4 11 343 18 355 8 11 136 23 306 27 l62 2 7 -81z m2445
-14 c0 -95 0 -95 -25 -95 -25 0 -25 0 -25 95 0 95 0 95 25 95 25 0 25 0 25
-95z m440 61 c0 -26 -5 -35 -22 -40 -50 -13 -58 -8 -58 34 l0 40 40 0 c39 0
40 -1 40 -34z m1040 4 c0 -27 -3 -30 -30 -30 -27 0 -30 3 -30 30 0 27 3 30 30
30 27 0 30 -3 30 -30z m-3650 -1 c9 -5 -8 -9 -47 -9 -51 0 -63 3 -63 16 0 13
8 14 48 8 26 -3 54 -10 62 -15z m574 15 c12 -5 16 -21 16 -70 l0 -64 -55 0
-55 0 0 60 0 60 48 1 c46 2 46 2 12 9 -30 6 -31 8 -8 9 14 0 33 -2 42 -5z
m221 -4 c-3 -5 -14 -10 -23 -9 -14 0 -13 2 3 9 27 11 27 11 20 0z m2612 -82
c-2 -18 -4 -4 -4 32 0 36 2 50 4 33 2 -18 2 -48 0 -65z m-2667 72 c0 -6 -27
-10 -60 -10 -33 0 -60 -4 -60 -10 0 -5 7 -10 15 -10 16 0 18 -12 9 -59 -4 -17
-13 -31 -20 -31 -11 0 -14 17 -14 65 l0 65 65 0 c37 0 65 -4 65 -10z m3177
-22 c-3 -7 -5 -2 -5 12 0 14 2 19 5 13 2 -7 2 -19 0 -25z m-3507 -43 l0 -65
-50 0 -50 0 0 59 0 60 33 4 c72 9 67 13 67 -58z m57 -27 c-2 -18 -4 -4 -4 32
0 36 2 50 4 33 2 -18 2 -48 0 -65z m381 72 c12 0 22 -4 22 -10 0 -5 -21 -10
-47 -10 -33 0 -43 3 -34 9 11 7 9 10 -10 14 -13 2 -8 3 11 1 19 -2 45 -4 58
-4z m-985 -7 c-7 -2 -19 -2 -25 0 -7 3 -2 5 12 5 14 0 19 -2 13 -5z m237 -3
c-8 -5 -28 -9 -45 -9 -30 2 -30 2 5 9 51 11 57 11 40 0z m2157 -112 c-2 -24
-4 -5 -4 42 0 47 2 66 4 43 2 -24 2 -62 0 -85z m-2341 90 c-3 -13 -6 -40 -6
-60 0 -27 -4 -38 -15 -38 -16 0 -19 22 -9 83 4 23 12 37 21 37 11 0 14 -7 9
-22z m29 -15 c0 -20 -6 -38 -12 -40 -14 -5 -17 18 -7 55 9 34 19 26 19 -15z
m275 27 c0 -5 -7 -10 -15 -10 -8 0 -15 5 -15 10 0 6 7 10 15 10 8 0 15 -4 15
-10z m60 0 c0 -5 -12 -10 -27 -10 -22 0 -25 2 -13 10 20 13 40 13 40 0z m450
-29 c0 -37 -1 -39 -37 -43 -21 -3 -39 -4 -41 -3 -1 1 0 21 4 44 6 39 8 41 40
41 33 0 34 -1 34 -39z m39 17 c0 -13 -4 -32 -9 -43 -7 -15 -9 -10 -9 23 -1 23
4 42 9 42 6 0 10 -10 9 -22z m-899 -12 c0 -13 -3 -38 -6 -55 -6 -26 -11 -31
-35 -31 -28 0 -29 2 -29 48 0 57 4 62 42 62 23 0 28 -4 28 -24z m3715 -31 c7
-54 3 -76 -12 -62 -3 4 -8 32 -11 62 -6 73 14 73 23 0z m73 -67 l3 -118 -31 0
-30 0 0 104 c0 57 -3 112 -6 121 -6 14 -1 16 27 13 l34 -3 3 -117z m-3670 59
c-4 -59 -25 -59 -30 1 -3 43 -1 48 15 44 14 -4 17 -13 15 -45z m2626 22 c3
-17 6 -78 6 -135 0 -113 2 -110 -59 -98 l-31 7 0 123 0 123 28 4 c15 2 32 5
38 6 6 0 14 -13 18 -30z m-2473 11 c5 0 9 -16 9 -35 0 -35 0 -35 -45 -35 -43
0 -45 1 -45 30 0 27 3 30 33 30 25 0 29 3 17 11 -12 9 -12 10 3 5 10 -3 23 -6
28 -6z m729 -15 c0 -23 -3 -25 -50 -25 -50 0 -55 4 -44 34 4 11 19 16 50 16
40 0 44 -2 44 -25z m1407 -72 c-2 -21 -4 -6 -4 32 0 39 2 55 4 38 2 -18 2 -50
0 -70z m1150 60 c-3 -10 -5 -4 -5 12 0 17 2 24 5 18 2 -7 2 -21 0 -30z m-3214
20 c-7 -2 -19 -2 -25 0 -7 3 -2 5 12 5 14 0 19 -2 13 -5z m60 0 c-7 -2 -21 -2
-30 0 -10 3 -4 5 12 5 17 0 24 -2 18 -5z m-223 -23 c0 -11 -4 -20 -10 -20 -5
0 -10 9 -10 20 0 11 5 20 10 20 6 0 10 -9 10 -20z m-265 0 c3 -5 -1 -10 -9
-10 -8 0 -18 5 -21 10 -3 6 1 10 9 10 8 0 18 -4 21 -10z m3985 0 c0 -5 -4 -10
-10 -10 -5 0 -10 5 -10 10 0 6 5 10 10 10 6 0 10 -4 10 -10z m-3552 -17 c-5
-26 -38 -29 -38 -4 0 15 6 21 21 21 14 0 19 -5 17 -17z m62 2 c0 -9 -9 -15
-25 -15 -16 0 -25 6 -25 15 0 9 9 15 25 15 16 0 25 -6 25 -15z m-490 -21 c0
-8 -9 -14 -20 -14 -13 0 -20 7 -20 19 0 14 5 18 20 14 11 -3 20 -12 20 -19z
m377 4 c-3 -8 -6 -5 -6 6 -1 11 2 17 5 13 3 -3 4 -12 1 -19z m2020 -25 c-3
-10 -5 -2 -5 17 0 19 2 27 5 18 2 -10 2 -26 0 -35z m1503 11 c0 -14 -4 -23
-10 -19 -5 3 -10 15 -10 26 0 10 5 19 10 19 6 0 10 -12 10 -26z m30 -5 c0 -17
-4 -28 -10 -24 -5 3 -10 17 -10 31 0 13 5 24 10 24 6 0 10 -14 10 -31z m30
-10 c0 -18 -4 -28 -10 -24 -5 3 -10 20 -10 36 0 18 4 28 10 24 6 -3 10 -20 10
-36z m-2877 -46 c-3 -43 -7 -79 -8 -81 -3 -4 -116 -9 -345 -17 -102 -3 -291
-10 -420 -15 -129 -5 -270 -10 -313 -10 l-79 0 7 68 c4 37 12 72 19 78 10 10
181 20 751 41 94 3 172 7 174 9 2 2 53 4 112 4 l107 0 -5 -77z m1917 67 c0 -5
-10 -10 -22 -9 -22 0 -22 1 -3 9 11 5 21 9 23 9 1 1 2 -3 2 -9z m50 -6 c0 -9
-7 -14 -17 -12 -25 5 -28 28 -4 28 12 0 21 -6 21 -16z m27 -16 c-3 -7 -5 -2
-5 12 0 14 2 19 5 13 2 -7 2 -19 0 -25z m923 -8 c-5 -22 -8 -27 -9 -13 -1 21
9 56 14 51 2 -2 0 -19 -5 -38z m-1067 23 c-7 -2 -19 -2 -25 0 -7 3 -2 5 12 5
14 0 19 -2 13 -5z m1177 -3 c0 -5 -2 -10 -4 -10 -3 0 -8 5 -11 10 -3 6 -1 10
4 10 6 0 11 -4 11 -10z m17 -72 c-2 -18 -4 -6 -4 27 0 33 2 48 4 33 2 -15 2
-42 0 -60z m-1030 -45 c-2 -21 -4 -4 -4 37 0 41 2 58 4 38 2 -21 2 -55 0 -75z
m960 60 c-3 -10 -5 -2 -5 17 0 19 2 27 5 18 2 -10 2 -26 0 -35z m-1167 -3 c0
-22 -2 -40 -4 -40 -2 0 -6 18 -8 40 -2 22 0 40 4 40 5 0 8 -18 8 -40z m58 -11
c3 -45 2 -46 -23 -42 -22 5 -25 10 -25 50 0 40 2 44 23 41 19 -3 22 -10 25
-49z m52 -5 c0 -47 -3 -55 -16 -50 -9 3 -18 6 -20 6 -2 0 -4 23 -4 50 0 43 3
50 20 50 18 0 20 -7 20 -56z m50 27 c0 -9 3 -33 6 -53 5 -31 4 -38 -9 -38 -22
0 -37 31 -37 78 0 35 2 39 20 35 11 -3 20 -13 20 -22z m987 -8 c-3 -10 -5 -4
-5 12 0 17 2 24 5 18 2 -7 2 -21 0 -30z m53 7 c0 -16 -4 -30 -10 -30 -5 0 -10
14 -10 30 0 17 5 30 10 30 6 0 10 -13 10 -30z m-1013 -72 c-2 -18 -4 -6 -4 27
0 33 2 48 4 33 2 -15 2 -42 0 -60z m120 66 c-3 -3 -12 -4 -19 -1 -8 3 -5 6 6
6 11 1 17 -2 13 -5z m46 -1 c-7 -2 -19 -2 -25 0 -7 3 -2 5 12 5 14 0 19 -2 13
-5z m47 -8 c0 -9 -6 -12 -15 -9 -8 4 -15 10 -15 15 0 5 7 9 15 9 8 0 15 -7 15
-15z m40 -60 c0 -43 -4 -75 -10 -75 -5 0 -10 17 -11 38 -1 20 -3 54 -4 75 -3
27 0 37 11 37 11 0 14 -16 14 -75z m-180 5 c0 -29 -4 -40 -15 -40 -12 0 -15
10 -13 40 1 25 7 40 15 40 9 0 13 -14 13 -40z m50 -5 c0 -33 -4 -45 -15 -45
-9 0 -15 9 -15 23 0 12 -3 32 -6 45 -5 18 -2 22 15 22 18 0 21 -6 21 -45z m50
-5 c0 -43 -3 -50 -20 -50 -17 0 -20 7 -20 50 0 43 3 50 20 50 17 0 20 -7 20
-50z m40 -10 c0 -38 -4 -50 -15 -50 -11 0 -15 12 -15 50 0 38 4 50 15 50 11 0
15 -12 15 -50z m-928 -132 c3 -90 5 -164 4 -165 -4 -5 -1475 -31 -1493 -27
-20 5 -23 13 -23 50 l0 44 41 0 40 0 -3 -37 c-2 -30 -8 -39 -28 -44 -14 -4
-18 -7 -10 -8 8 0 335 78 725 173 391 96 717 174 726 175 14 1 17 -20 21 -161z
m870 20 c460 -78 835 -145 832 -147 -6 -6 -1677 -41 -1683 -36 -2 3 -6 76 -9
165 -4 132 -2 160 9 160 8 0 391 -64 851 -142z m208 72 c0 -40 -4 -70 -10 -70
-6 0 -10 30 -10 70 0 40 4 70 10 70 6 0 10 -30 10 -70z m-1442 23 c-3 -25 -10
-29 -93 -50 -49 -13 -134 -26 -187 -30 l-98 -6 0 51 0 51 138 4 c75 1 161 4
190 5 52 2 53 2 50 -25z m1876 1 c11 -29 6 -35 -26 -32 -25 2 -34 8 -36 26 -3
18 1 22 26 22 18 0 32 -6 36 -16z m-2794 -44 l0 -50 -77 0 c-43 0 -280 -7
-528 -15 -247 -8 -474 -15 -502 -15 l-53 0 0 45 0 45 93 1 c72 1 908 31 1040
38 26 1 27 -1 27 -49z m2527 18 c-3 -7 -5 -2 -5 12 0 14 2 19 5 13 2 -7 2 -19
0 -25z m32 -58 c2 21 5 27 8 17 6 -24 -5 -67 -17 -67 -6 0 -9 29 -8 68 l1 67
7 -60 c5 -46 7 -52 9 -25z m-3729 -3 l0 -44 -122 -6 c-66 -4 -152 -7 -190 -7
-68 0 -68 0 -68 28 0 54 6 57 177 63 87 3 168 6 181 7 20 2 22 -2 22 -41z
m3900 -22 c0 -37 -4 -65 -10 -65 -5 0 -10 15 -10 34 0 18 -3 48 -6 65 -5 24
-3 31 10 31 13 0 16 -12 16 -65z m70 -10 c0 -78 -4 -84 -44 -69 -12 5 -16 21
-16 75 l0 69 30 0 30 0 0 -75z m-2200 15 c-36 -12 -60 -12 -60 0 0 6 19 10 43
9 36 -1 38 -2 17 -9z m-1043 -72 c-2 -13 -4 -3 -4 22 0 25 2 35 4 23 2 -13 2
-33 0 -45z m143 52 c-10 -6 -11 -10 -2 -10 6 0 12 -9 12 -20 0 -18 -7 -20 -65
-20 -62 0 -65 1 -65 25 0 22 4 24 58 28 31 2 62 4 67 5 6 1 3 -3 -5 -8z m160
0 c0 -11 -60 -11 -105 0 -23 6 -15 8 38 9 39 1 67 -3 67 -9z m140 3 c0 -5 -4
-14 -8 -20 -11 -18 -112 -5 -112 13 0 10 16 14 60 14 33 0 60 -3 60 -7z m2830
-24 c0 -17 -4 -28 -10 -24 -5 3 -10 17 -10 31 0 13 5 24 10 24 6 0 10 -14 10
-31z m30 -5 c0 -21 -4 -33 -10 -29 -5 3 -10 19 -10 36 0 16 5 29 10 29 6 0 10
-16 10 -36z m30 1 c0 -19 -4 -35 -10 -35 -5 0 -10 16 -10 35 0 19 5 35 10 35
6 0 10 -16 10 -35z m130 25 c0 -5 -4 -10 -10 -10 -5 0 -10 5 -10 10 0 6 5 10
10 10 6 0 10 -4 10 -10z m43 -47 c4 -31 2 -53 -3 -53 -6 0 -10 26 -10 57 0 68
5 67 13 -4z m-3653 22 c0 -23 -3 -25 -49 -25 -58 0 -81 7 -81 25 0 13 16 16
108 23 17 2 22 -3 22 -23z m120 6 c0 -20 -25 -31 -72 -31 -23 0 -28 4 -28 25
0 23 3 25 50 25 42 0 50 -3 50 -19z m3167 -18 c-3 -10 -5 -4 -5 12 0 17 2 24
5 18 2 -7 2 -21 0 -30z m-3567 16 c0 -7 -16 -8 -47 -3 -65 9 -67 14 -5 14 30
0 52 -4 52 -11z m140 -4 c0 -16 -22 -19 -82 -9 -58 10 -45 24 22 24 47 0 60
-3 60 -15z m589 -1 c1 -1 0 -7 -4 -13 -3 -6 -33 -11 -66 -11 -53 0 -59 2 -59
20 0 20 4 21 63 14 34 -4 64 -8 66 -10z m-1033 -31 c-3 -21 -7 -82 -8 -135
l-2 -98 -157 0 c-86 0 -171 -3 -188 -6 l-31 -6 0 44 c0 25 3 86 6 136 l7 91
111 4 c61 1 146 4 189 5 l79 2 -6 -37z m154 12 c0 -23 -4 -25 -45 -25 l-46 0
7 -35 c5 -31 4 -35 -15 -35 -19 0 -21 6 -21 60 l0 60 60 0 c57 0 60 -1 60 -25z
m3987 -7 c-3 -7 -5 -2 -5 12 0 14 2 19 5 13 2 -7 2 -19 0 -25z m25 -3 c2 -19
0 -35 -4 -35 -4 0 -8 16 -8 35 0 19 2 35 4 35 2 0 6 -16 8 -35z m27 -2 c0 -31
-2 -34 -9 -18 -12 28 -12 55 0 55 6 0 10 -17 9 -37z m-3920 21 c17 -4 31 -13
31 -20 0 -11 -17 -14 -65 -14 -58 0 -65 2 -65 20 0 16 7 20 34 20 18 0 48 -3
65 -6z m889 -8 c8 -8 1 -12 -33 -20 -22 -5 -26 -4 -15 4 11 7 4 10 -27 10 -26
0 -43 5 -43 11 0 12 106 7 118 -5z m-740 -6 c12 0 22 -6 22 -14 0 -7 -10 -16
-22 -20 -33 -8 -46 -6 -23 4 15 6 8 9 -27 9 -37 1 -48 5 -48 17 0 14 7 15 38
10 20 -3 47 -6 60 -6z m52 -9 c0 -6 -4 -13 -10 -16 -5 -3 -10 1 -10 9 0 9 5
16 10 16 6 0 10 -4 10 -9z m225 -1 c3 -6 -1 -7 -9 -4 -18 7 -21 14 -7 14 6 0
13 -4 16 -10z m-688 -112 c-2 -24 -4 -7 -4 37 0 44 2 63 4 43 2 -21 2 -57 0
-80z m871 97 c1 -1 -1 -29 -4 -63 l-7 -62 -54 0 -53 0 6 58 c4 31 12 60 17 64
6 3 -1 8 -14 11 -13 2 5 2 41 -1 36 -3 66 -6 68 -7z m52 -64 c0 -30 -5 -43
-20 -51 -18 -10 -20 -8 -20 23 0 19 3 48 6 65 5 27 8 29 20 17 8 -7 14 -32 14
-54z m-797 52 c-13 -2 -33 -2 -45 0 -13 2 -3 4 22 4 25 0 35 -2 23 -4z m567
-20 c0 -16 -3 -45 -6 -65 -7 -38 -7 -38 -55 -38 -47 0 -49 1 -49 28 0 15 3 44
6 65 7 37 7 37 55 37 47 0 49 -1 49 -27z m51 -64 l-9 -34 -1 40 c0 22 3 51 7
65 7 24 7 24 10 -6 2 -18 -1 -47 -7 -65z m-555 59 c-3 -13 -6 -42 -6 -65 0
-32 -4 -43 -15 -43 -10 0 -15 10 -15 34 0 56 11 96 27 96 11 0 14 -7 9 -22z
m34 -25 c0 -23 -14 -31 -25 -13 -3 5 -3 21 1 35 5 20 9 23 15 13 5 -7 9 -23 9
-35z m817 -5 c-2 -13 -4 -5 -4 17 -1 22 1 32 4 23 2 -10 2 -28 0 -40z m69 32
c57 0 56 -14 0 -29 -59 -15 -56 -16 -55 22 0 17 3 26 6 20 3 -8 23 -13 49 -13z
m-966 -4 c0 -7 -3 -34 -6 -60 -6 -43 -9 -46 -35 -46 -29 0 -29 1 -29 60 l0 60
35 0 c23 0 35 -5 35 -14z m120 -46 c0 -38 -4 -50 -15 -50 -11 0 -15 12 -15 50
0 38 4 50 15 50 11 0 15 -12 15 -50z m63 20 c-3 -11 -9 -20 -14 -20 -5 0 -9 9
-9 20 0 11 6 20 14 20 9 0 12 -7 9 -20z m97 -25 l0 -45 -45 0 -45 0 0 38 c0
21 3 42 7 45 3 4 24 7 45 7 l38 0 0 -45z m74 13 c-9 -30 -8 -30 -28 -22 -9 3
-16 15 -16 25 0 14 7 19 26 19 22 0 24 -3 18 -22z m66 -18 c0 -38 -2 -40 -30
-40 -25 0 -30 4 -30 24 0 40 11 56 36 56 21 0 24 -4 24 -40z m-500 10 c0 -5
-9 -10 -20 -10 -11 0 -20 5 -20 10 0 6 9 10 20 10 11 0 20 -4 20 -10z m160
-16 c0 -2 -7 -4 -15 -4 -8 0 -15 4 -15 10 0 5 7 7 15 4 8 -4 15 -8 15 -10z
m487 -21 c-3 -10 -5 -4 -5 12 0 17 2 24 5 18 2 -7 2 -21 0 -30z m-387 17 c0
-5 -4 -10 -10 -10 -5 0 -10 5 -10 10 0 6 5 10 10 10 6 0 10 -4 10 -10z m-260
-20 c0 -13 -7 -20 -20 -20 -13 0 -20 7 -20 20 0 13 7 20 20 20 13 0 20 -7 20
-20z m420 10 c12 -8 11 -10 -7 -10 -13 0 -23 5 -23 10 0 13 11 13 30 0z m-270
-15 c0 -8 -4 -15 -10 -15 -5 0 -10 7 -10 15 0 8 5 15 10 15 6 0 10 -7 10 -15z
m670 -64 l0 -48 -57 -2 c-343 -12 -393 -11 -393 4 0 11 -12 15 -51 15 -27 0
-48 3 -46 8 3 4 -73 6 -169 4 -180 -4 -189 -1 -165 37 8 13 116 17 794 29 l87
2 0 -49z m-718 -101 l-4 -70 -334 0 -334 0 0 53 c0 28 4 57 8 64 9 15 78 19
407 21 l260 2 -3 -70z m678 13 c0 -16 -3 -45 -6 -65 l-7 -38 -198 0 -199 0 0
60 0 59 148 4 c81 1 173 4 205 5 56 2 57 2 57 -25z m3420 -83 l0 -50 -497 -2
c-687 -4 -898 -3 -1115 6 l-188 8 0 34 0 34 308 1 c360 2 1425 14 1465 17 26
2 27 0 27 -48z m-1810 -5 l0 -35 -97 5 c-54 4 -331 15 -617 26 -285 10 -524
20 -530 21 -6 2 216 5 494 8 278 3 560 6 628 8 l122 2 0 -35z m87 -167 c-2
-24 -4 -5 -4 42 0 47 2 66 4 43 2 -24 2 -62 0 -85z m903 95 c0 -14 -12 -15
-112 -10 -62 4 -167 8 -233 9 l-120 2 150 6 c306 12 315 12 315 -7z m110 -3
c0 -15 -7 -20 -27 -20 -43 0 -73 11 -73 26 0 10 14 14 50 14 43 0 50 -3 50
-20z m32 -60 c3 -82 -4 -105 -16 -49 -9 47 -7 129 3 129 5 0 11 -36 13 -80z
m168 60 c0 -18 -7 -20 -75 -20 -68 0 -75 2 -75 20 0 18 7 20 75 20 68 0 75 -2
75 -20z m29 -87 c0 -30 -3 -53 -9 -53 -6 0 -10 33 -9 83 1 90 16 66 18 -30z
m131 82 c0 -25 -2 -26 -57 -23 -51 3 -58 6 -61 26 -3 21 0 22 57 22 59 0 61
-1 61 -25z m70 0 c0 -21 -5 -25 -30 -25 -25 0 -30 4 -30 25 0 21 5 25 30 25
25 0 30 -4 30 -25z m30 0 c0 -14 -4 -25 -10 -25 -5 0 -10 11 -10 25 0 14 5 25
10 25 6 0 10 -11 10 -25z m179 19 c57 -6 61 -9 61 -32 0 -25 -1 -25 -61 -18
-34 3 -86 6 -115 6 -51 0 -54 1 -54 25 0 24 3 25 54 25 29 0 81 -3 115 -6z
m131 -29 c0 -19 -2 -35 -4 -35 -2 0 -6 16 -8 35 -2 19 0 35 4 35 4 0 8 -16 8
-35z m58 28 c-10 -2 -26 -2 -35 0 -10 3 -2 5 17 5 19 0 27 -2 18 -5z m-78 -33
c0 -11 -7 -20 -15 -20 -8 0 -15 9 -15 20 0 11 7 20 15 20 8 0 15 -9 15 -20z
m110 0 c0 -17 -7 -20 -40 -20 -33 0 -40 3 -40 20 0 17 7 20 40 20 33 0 40 -3
40 -20z m-1420 0 c0 -5 -4 -10 -10 -10 -5 0 -10 5 -10 10 0 6 5 10 10 10 6 0
10 -4 10 -10z m40 0 c0 -5 -7 -10 -15 -10 -8 0 -15 5 -15 10 0 6 7 10 15 10 8
0 15 -4 15 -10z m40 0 c0 -5 -7 -10 -15 -10 -8 0 -15 5 -15 10 0 6 7 10 15 10
8 0 15 -4 15 -10z m25 0 c3 -5 1 -10 -4 -10 -6 0 -11 5 -11 10 0 6 2 10 4 10
3 0 8 -4 11 -10z m75 -20 c0 -11 -7 -20 -15 -20 -8 0 -15 9 -15 20 0 11 7 20
15 20 8 0 15 -9 15 -20z m30 0 c0 -11 -4 -20 -10 -20 -5 0 -10 9 -10 20 0 11
5 20 10 20 6 0 10 -9 10 -20z m30 0 c0 -11 -4 -20 -10 -20 -5 0 -10 9 -10 20
0 11 5 20 10 20 6 0 10 -9 10 -20z m30 0 c0 -11 -4 -20 -10 -20 -5 0 -10 9
-10 20 0 11 5 20 10 20 6 0 10 -9 10 -20z m30 0 c0 -11 -4 -20 -10 -20 -5 0
-10 9 -10 20 0 11 5 20 10 20 6 0 10 -9 10 -20z m30 0 c0 -11 -4 -20 -10 -20
-5 0 -10 9 -10 20 0 11 5 20 10 20 6 0 10 -9 10 -20z m30 0 c0 -11 -4 -20 -10
-20 -5 0 -10 9 -10 20 0 11 5 20 10 20 6 0 10 -9 10 -20z m30 -5 c0 -14 -4
-25 -10 -25 -5 0 -10 11 -10 25 0 14 5 25 10 25 6 0 10 -11 10 -25z m30 -6 c0
-10 -4 -19 -10 -19 -5 0 -10 12 -10 26 0 14 4 23 10 19 6 -3 10 -15 10 -26z
m30 1 c0 -11 -4 -20 -10 -20 -5 0 -10 9 -10 20 0 11 5 20 10 20 6 0 10 -9 10
-20z m17 -2 c-3 -8 -6 -5 -6 6 -1 11 2 17 5 13 3 -3 4 -12 1 -19z m20 0 c-3
-8 -6 -5 -6 6 -1 11 2 17 5 13 3 -3 4 -12 1 -19z m33 1 c0 -5 -4 -9 -10 -9 -5
0 -10 7 -10 16 0 8 5 12 10 9 6 -3 10 -10 10 -16z m20 6 c0 -8 -2 -15 -4 -15
-2 0 -6 7 -10 15 -3 8 -1 15 4 15 6 0 10 -7 10 -15z m17 -7 c-3 -8 -6 -5 -6 6
-1 11 2 17 5 13 3 -3 4 -12 1 -19z m-547 2 c0 -5 -7 -10 -15 -10 -8 0 -15 5
-15 10 0 6 7 10 15 10 8 0 15 -4 15 -10z m30 0 c0 -5 -4 -10 -10 -10 -5 0 -10
5 -10 10 0 6 5 10 10 10 6 0 10 -4 10 -10z m40 0 c0 -5 -7 -10 -15 -10 -8 0
-15 5 -15 10 0 6 7 10 15 10 8 0 15 -4 15 -10z m590 2 c0 -4 -9 -8 -20 -9 -11
-1 -20 2 -20 5 0 4 9 8 20 9 11 1 20 -2 20 -5z m322 -42 l3 -50 -32 0 c-33 0
-33 0 -33 50 0 49 1 50 29 50 28 0 29 -2 33 -50z m276 23 c-10 -2 -28 -2 -40
0 -13 2 -5 4 17 4 22 1 32 -1 23 -4z m-20 -46 c3 -22 -1 -27 -17 -27 -17 0
-21 6 -21 31 0 24 4 30 18 27 10 -2 18 -14 20 -31z m32 3 c0 -16 -4 -30 -9
-30 -5 0 -11 14 -13 30 -3 20 0 30 9 30 8 0 13 -12 13 -30z m90 16 c0 -8 3
-21 6 -30 5 -13 -2 -16 -40 -16 -44 0 -46 1 -46 30 0 28 2 30 40 30 28 0 40
-4 40 -14z m50 -16 c0 -32 -23 -42 -34 -14 -11 29 -6 44 14 44 16 0 20 -7 20
-30z m130 0 l0 -30 -60 0 -60 0 0 30 0 30 60 0 60 0 0 -30z m40 0 c0 -20 -5
-30 -15 -30 -10 0 -15 10 -15 30 0 20 5 30 15 30 10 0 15 -10 15 -30z m140 0
l0 -30 -65 0 -65 0 0 30 0 30 65 0 65 0 0 -30z m38 -3 c2 -19 -1 -27 -12 -27
-11 0 -16 10 -16 31 0 38 24 35 28 -4z m-780 -44 c-10 -2 -28 -2 -40 0 -13 2
-5 4 17 4 22 1 32 -1 23 -4z m255 0 c-7 -2 -19 -2 -25 0 -7 3 -2 5 12 5 14 0
19 -2 13 -5z m120 0 c-13 -2 -35 -2 -50 0 -16 2 -5 4 22 4 28 0 40 -2 28 -4z
m54 1 c-3 -3 -12 -4 -19 -1 -8 3 -5 6 6 6 11 1 17 -2 13 -5z m106 -1 c-18 -2
-48 -2 -65 0 -18 2 -4 4 32 4 36 0 50 -2 33 -4z m64 1 c-3 -3 -12 -4 -19 -1
-8 3 -5 6 6 6 11 1 17 -2 13 -5z m110 -1 c-20 -2 -52 -2 -70 0 -17 2 0 4 38 4
39 0 53 -2 32 -4z m70 1 c-3 -3 -12 -4 -19 -1 -8 3 -5 6 6 6 11 1 17 -2 13 -5z
m-1167 -84 c0 -40 -4 -70 -10 -70 -6 0 -10 30 -10 70 0 40 4 70 10 70 6 0 10
-30 10 -70z m189 3 c-1 -53 -3 -61 -9 -38 -11 45 -11 105 0 105 6 0 10 -28 9
-67z m211 7 c0 -60 0 -60 -29 -60 -29 0 -29 1 -33 60 l-3 60 33 0 32 0 0 -60z
m250 10 c0 -38 -4 -50 -15 -50 -9 0 -15 10 -16 28 -2 24 -2 23 -9 -8 -9 -43
-12 -9 -4 43 5 27 11 37 25 37 16 0 19 -8 19 -50z m30 0 c0 -27 -4 -50 -10
-50 -5 0 -10 23 -10 50 0 28 5 50 10 50 6 0 10 -22 10 -50z m100 0 l0 -50 -45
0 -45 0 0 50 0 50 45 0 45 0 0 -50z m40 0 c0 -38 -4 -50 -15 -50 -11 0 -15 12
-15 50 0 38 4 50 15 50 11 0 15 -12 15 -50z m134 28 c3 -13 6 -35 6 -50 0 -28
-1 -28 -65 -28 l-65 0 0 50 0 50 59 0 c52 0 59 -2 65 -22z m40 -9 c10 -50 7
-69 -9 -69 -10 0 -15 10 -15 28 0 15 -3 37 -6 50 -5 15 -2 22 9 22 8 0 17 -13
21 -31z m140 9 c3 -13 6 -38 6 -55 l0 -33 -65 0 c-62 0 -65 1 -65 24 0 13 -3
38 -6 55 l-6 31 65 0 c59 0 65 -2 71 -22z m38 -33 c2 -39 -1 -55 -9 -55 -8 0
-13 13 -13 33 0 17 -3 42 -6 55 -5 16 -2 22 9 22 11 0 16 -14 19 -55z m-3695
-147 c-3 -7 -5 -2 -5 12 0 14 2 19 5 13 2 -7 2 -19 0 -25z m-2229 15 c-21 -2
-57 -2 -80 0 -24 2 -7 4 37 4 44 0 63 -2 43 -4z m24 -97 l-3 -84 -70 -7 c-39
-4 -73 -5 -76 -2 -3 4 -2 45 2 92 l7 85 71 0 72 0 -3 -84z m2105 -38 c-3 -7
-5 -2 -5 12 0 14 2 19 5 13 2 -7 2 -19 0 -25z m-1959 -165 c-27 -2 -69 -2 -95
0 -27 2 -5 3 47 3 52 0 74 -1 48 -3z m380 -10 c-27 -2 -69 -2 -95 0 -27 2 -5
3 47 3 52 0 74 -1 48 -3z m380 -10 c-26 -2 -71 -2 -100 0 -29 2 -8 3 47 3 55
0 79 -1 53 -3z m329 -10 c-20 -2 -52 -2 -70 0 -17 2 0 4 38 4 39 0 53 -2 32
-4z"/>
<path d="M2319 3510 c24 -11 46 -20 50 -20 12 1 -64 39 -79 39 -8 0 5 -8 29
-19z"/>
<path d="M2169 3105 c18 -8 38 -15 45 -15 6 1 -4 7 -23 15 -18 8 -38 15 -45
15 -6 -1 4 -7 23 -15z"/>
<path d="M2890 5456 c0 -2 7 -9 15 -16 9 -7 15 -8 15 -2 0 5 -7 12 -15 16 -8
3 -15 4 -15 2z"/>
<path d="M2890 5286 c0 -2 7 -9 15 -16 9 -7 15 -8 15 -2 0 5 -7 12 -15 16 -8
3 -15 4 -15 2z"/>
<path d="M2935 3500 c-3 -5 -1 -10 4 -10 6 0 11 5 11 10 0 6 -2 10 -4 10 -3 0
-8 -4 -11 -10z"/>
<path d="M2870 3126 c0 -2 7 -9 15 -16 9 -7 15 -8 15 -2 0 5 -7 12 -15 16 -8
3 -15 4 -15 2z"/>
<path d="M2880 2919 c0 -5 5 -7 10 -4 6 3 10 8 10 11 0 2 -4 4 -10 4 -5 0 -10
-5 -10 -11z"/>
<path d="M2925 2550 c3 -5 8 -10 11 -10 2 0 4 5 4 10 0 6 -5 10 -11 10 -5 0
-7 -4 -4 -10z"/>
<path d="M2925 2360 c-3 -5 -1 -10 4 -10 6 0 11 5 11 10 0 6 -2 10 -4 10 -3 0
-8 -4 -11 -10z"/>
<path d="M2881 2144 c0 -11 3 -14 6 -6 3 7 2 16 -1 19 -3 4 -6 -2 -5 -13z"/>
<path d="M2866 1955 c4 -8 11 -15 16 -15 6 0 5 6 -2 15 -7 8 -14 15 -16 15 -2
0 -1 -7 2 -15z"/>
<path d="M2920 1770 c0 -5 5 -10 10 -10 6 0 10 5 10 10 0 6 -4 10 -10 10 -5 0
-10 -4 -10 -10z"/>
<path d="M2870 1750 c0 -5 5 -10 11 -10 5 0 7 5 4 10 -3 6 -8 10 -11 10 -2 0
-4 -4 -4 -10z"/>
</g>
</svg>
